<svg width="40" height="40" viewBox="0 0 40 40" fill="none" xmlns="http://www.w3.org/2000/svg">
<g id="Icono/Alerta/2">
<path id="icon" fill-rule="evenodd" clip-rule="evenodd" d="M37.4026 26.5886L25.727 6.62936C24.5549 4.59733 22.3701 3.3361 20.0074 3.33334C17.6445 3.33057 15.459 4.58659 14.2723 6.62945L2.59237 26.596C1.38125 28.6325 1.35385 31.1842 2.52696 33.2653C3.70104 35.3482 5.89943 36.6444 8.29066 36.6638L31.6871 36.6639C34.1032 36.6404 36.2974 35.3482 37.4713 33.2672C38.6438 31.1887 38.6176 28.6426 37.4026 26.5886ZM5.46346 28.2895L17.152 8.30818C17.7439 7.28923 18.8296 6.66529 20.0035 6.66667C21.1773 6.66804 22.2626 7.29455 22.8447 8.3037L34.5295 28.2787C35.142 29.3141 35.1551 30.5888 34.5681 31.6295C33.9802 32.6716 32.8811 33.3188 31.6708 33.3307L8.30421 33.3305C7.11987 33.3208 6.0187 32.6716 5.43072 31.6285C4.84339 30.5866 4.8571 29.3091 5.46346 28.2895ZM20.0005 29.9972C20.9213 29.9972 21.6678 29.251 21.6678 28.3306C21.6678 27.4101 20.9213 26.6639 20.0005 26.6639C19.0798 26.6639 18.3333 27.4101 18.3333 28.3306C18.3333 29.251 19.0798 29.9972 20.0005 29.9972ZM21.6727 13.3306H18.3383V24.9972H21.6727V13.3306Z" fill="#212121"/>
</g>
</svg>
