<svg width="40" height="40" viewBox="0 0 40 40" fill="none" xmlns="http://www.w3.org/2000/svg">
<path fill-rule="evenodd" clip-rule="evenodd" d="M17.8549 30.7098C10.7553 30.7098 5 24.9545 5 17.8549C5 10.7553 10.7553 5 17.8549 5C24.9545 5 30.7098 10.7553 30.7098 17.8549C30.7098 20.8256 29.7022 23.5608 28.0101 25.7376L36.6667 34.3942L34.3942 36.6667L25.7376 28.0101C23.5608 29.7022 20.8256 30.7098 17.8549 30.7098ZM27.4961 17.8549C27.4961 23.1796 23.1796 27.4961 17.8549 27.4961C12.5302 27.4961 8.21373 23.1796 8.21373 17.8549C8.21373 12.5302 12.5302 8.21373 17.8549 8.21373C23.1796 8.21373 27.4961 12.5302 27.4961 17.8549Z" fill="#212121"/>
</svg>
