<svg width="40" height="40" viewBox="0 0 40 40" fill="none" xmlns="http://www.w3.org/2000/svg">
<g id="Icono/Camara">
<path id="icon" fill-rule="evenodd" clip-rule="evenodd" d="M11.5617 9.74229C11.6798 9.57814 11.8109 9.37718 11.9782 9.1062C12.0393 9.00721 12.2058 8.73238 12.3299 8.52771L12.3299 8.52767C12.3961 8.41842 12.4502 8.32917 12.4697 8.29735C13.8513 6.03731 14.8557 5 16.6667 5H23.3333C25.1443 5 26.1487 6.03731 27.5303 8.29735C27.5498 8.32914 27.6038 8.41827 27.6699 8.52739L27.67 8.52744C27.794 8.73213 27.9607 9.00716 28.0218 9.1062C28.1891 9.37718 28.3202 9.57814 28.4383 9.74229C28.5162 9.85055 28.5842 9.93657 28.6397 10H33.3333C36.0948 10 38.3333 12.2386 38.3333 15V30C38.3333 32.7614 36.0948 35 33.3333 35H6.66667C3.90525 35 1.66667 32.7614 1.66667 30V15C1.66667 12.2386 3.90525 10 6.66667 10H11.3603C11.4158 9.93657 11.4838 9.85055 11.5617 9.74229ZM6.66667 13.3333C5.7462 13.3333 5.00001 14.0795 5.00001 15V30C5.00001 30.9205 5.7462 31.6667 6.66667 31.6667H33.3333C34.2538 31.6667 35 30.9205 35 30V15C35 14.0795 34.2538 13.3333 33.3333 13.3333H28.3333C27.2261 13.3333 26.4794 12.7273 25.7323 11.6888C25.5604 11.4498 25.3901 11.1889 25.1852 10.8568C25.115 10.743 24.9325 10.442 24.8074 10.2356L24.8074 10.2355C24.7482 10.1379 24.7019 10.0614 24.6863 10.036C23.9325 8.80287 23.4779 8.33333 23.3333 8.33333H16.6667C16.5221 8.33333 16.0675 8.80287 15.3137 10.036L15.1924 10.2358C15.0673 10.4422 14.885 10.743 14.8148 10.8568C14.6099 11.1889 14.4396 11.4498 14.2677 11.6888C13.5206 12.7273 12.7739 13.3333 11.6667 13.3333H6.66667ZM33.3333 16.6667C33.3333 17.5871 32.5871 18.3333 31.6667 18.3333C30.7462 18.3333 30 17.5871 30 16.6667C30 15.7462 30.7462 15 31.6667 15C32.5871 15 33.3333 15.7462 33.3333 16.6667ZM11.6667 21.6667C11.6667 26.269 15.3976 30 20 30C24.6024 30 28.3333 26.269 28.3333 21.6667C28.3333 17.0643 24.6024 13.3333 20 13.3333C15.3976 13.3333 11.6667 17.0643 11.6667 21.6667ZM25 21.6667C25 24.4281 22.7614 26.6667 20 26.6667C17.2386 26.6667 15 24.4281 15 21.6667C15 18.9052 17.2386 16.6667 20 16.6667C22.7614 16.6667 25 18.9052 25 21.6667Z" fill="black"/>
</g>
</svg>
