<svg width="22" height="22" viewBox="0 0 22 22" fill="none" xmlns="http://www.w3.org/2000/svg">
<path fill-rule="evenodd" clip-rule="evenodd" d="M0 11C0 17.0751 4.92487 22 11 22C17.0751 22 22 17.0751 22 11C22 4.92487 17.0751 0 11 0C4.92487 0 0 4.92487 0 11ZM20 11C20 15.9706 15.9706 20 11 20C6.02944 20 2 15.9706 2 11C2 6.02944 6.02944 2 11 2C15.9706 2 20 6.02944 20 11ZM11 9C13.2091 9 15 10.7909 15 13V14C15 16.2091 13.2091 18 11 18C8.79086 18 7 16.2091 7 14V13C7 10.7909 8.79086 9 11 9ZM9 13C9 11.8954 9.89543 11 11 11C12.1046 11 13 11.8954 13 13V14C13 15.1046 12.1046 16 11 16C9.89543 16 9 15.1046 9 14V13ZM14 6H16V8H14V6ZM8 6H6V8H8V6Z" fill="black"/>
</svg>
