<svg width="40" height="40" viewBox="0 0 40 40" fill="none" xmlns="http://www.w3.org/2000/svg">
<g id="Icono/Compartir/1">
<path id="icon" fill-rule="evenodd" clip-rule="evenodd" d="M23.3333 9.99999C23.3333 10.479 23.3839 10.9463 23.4799 11.3967L15.0282 15.6225C13.8061 14.2198 12.0066 13.3333 10 13.3333C6.3181 13.3333 3.33334 16.3181 3.33334 20C3.33334 23.6819 6.3181 26.6667 10 26.6667C12.0066 26.6667 13.8061 25.7802 15.0282 24.3775L23.4799 28.6033C23.3839 29.0537 23.3333 29.521 23.3333 30C23.3333 33.6819 26.3181 36.6667 30 36.6667C33.6819 36.6667 36.6667 33.6819 36.6667 30C36.6667 26.3181 33.6819 23.3333 30 23.3333C27.9934 23.3333 26.1939 24.2198 24.9718 25.6225L16.5201 21.3967C16.6161 20.9463 16.6667 20.479 16.6667 20C16.6667 19.521 16.6161 19.0537 16.5201 18.6033L24.9718 14.3775C26.1939 15.7802 27.9934 16.6667 30 16.6667C33.6819 16.6667 36.6667 13.6819 36.6667 9.99999C36.6667 6.3181 33.6819 3.33333 30 3.33333C26.3181 3.33333 23.3333 6.3181 23.3333 9.99999ZM13.3333 20C13.3333 21.8409 11.841 23.3333 10 23.3333C8.15905 23.3333 6.66667 21.8409 6.66667 20C6.66667 18.159 8.15905 16.6667 10 16.6667C11.841 16.6667 13.3333 18.159 13.3333 20ZM30 13.3333C31.841 13.3333 33.3333 11.8409 33.3333 10C33.3333 8.15905 31.841 6.66666 30 6.66666C28.1591 6.66666 26.6667 8.15905 26.6667 10C26.6667 11.8409 28.1591 13.3333 30 13.3333ZM33.3333 30C33.3333 31.8409 31.841 33.3333 30 33.3333C28.1591 33.3333 26.6667 31.8409 26.6667 30C26.6667 28.159 28.1591 26.6667 30 26.6667C31.841 26.6667 33.3333 28.159 33.3333 30Z" fill="black"/>
</g>
</svg>
