<?xml version="1.0" encoding="utf-8"?>
<!-- Generator: Adobe Illustrator 21.0.0, SVG Export Plug-In . SVG Version: 6.00 Build 0)  -->
<svg version="1.1" id="Capa_1" xmlns="http://www.w3.org/2000/svg" xmlns:xlink="http://www.w3.org/1999/xlink" x="0px" y="0px"
	 viewBox="0 0 38.7 37" style="enable-background:new 0 0 38.7 37;" xml:space="preserve">
<style type="text/css">
	.st0{fill:#212121;}
</style>
<path class="st0" d="M29.6,11.6c0.3,0,0.6-0.3,0.6-0.6V4.2c0-1-0.8-1.9-1.9-1.9H5.6c-1,0-1.9,0.8-1.9,1.9v28.2c0,1,0.8,1.9,1.9,1.9
	h22.7c1,0,1.9-0.8,1.9-1.9v-4.6c0-0.3-0.3-0.6-0.6-0.6c-0.3,0-0.6,0.3-0.6,0.6v4.6c0,0.3-0.3,0.6-0.6,0.6H5.6
	c-0.3,0-0.6-0.3-0.6-0.6V4.2c0-0.3,0.3-0.6,0.6-0.6h22.7c0.3,0,0.6,0.3,0.6,0.6V11C29,11.4,29.2,11.6,29.6,11.6z"/>
<path class="st0" d="M17,5.7c-3.2,0-5.7,2.6-5.7,5.7c0,1.6,0.7,3.1,1.8,4.2c0,0,0,0,0.1,0.1c1,0.9,2.4,1.5,3.9,1.5
	c1.5,0,2.9-0.6,3.9-1.5c0,0,0,0,0.1-0.1c1.1-1,1.8-2.5,1.8-4.2C22.7,8.3,20.1,5.7,17,5.7z M17,16c-1,0-2-0.3-2.7-0.9
	c0.5-1,1.6-1.6,2.7-1.6s2.2,0.6,2.7,1.6C18.9,15.6,18,16,17,16z M16,11.2v-0.4c0-0.6,0.4-1,1-1c0.6,0,1,0.4,1,1v0.4c0,0.6-0.4,1-1,1
	C16.4,12.2,16,11.8,16,11.2z M20.6,14.1c-0.5-0.7-1.1-1.2-1.8-1.5c0.3-0.4,0.5-0.9,0.5-1.4v-0.4c0-1.2-1-2.3-2.3-2.3s-2.2,1-2.2,2.3
	v0.4c0,0.5,0.2,1,0.5,1.4c-0.7,0.3-1.4,0.9-1.8,1.5c-0.6-0.7-0.9-1.7-0.9-2.7C12.5,9,14.5,7,17,7s4.5,2,4.5,4.5
	C21.5,12.5,21.1,13.4,20.6,14.1z"/>
<path class="st0" d="M20.3,29.7H17c-0.3,0-0.6,0.3-0.6,0.6S16.6,31,17,31h3.4c0.3,0,0.6-0.3,0.6-0.6S20.7,29.7,20.3,29.7z"/>
<path class="st0" d="M20.3,26.2h-8.9c-0.3,0-0.6,0.3-0.6,0.6s0.3,0.6,0.6,0.6h8.9c0.3,0,0.6-0.3,0.6-0.6S20.7,26.2,20.3,26.2z"/>
<path class="st0" d="M20.3,22.7h-8.9c-0.3,0-0.6,0.3-0.6,0.6s0.3,0.6,0.6,0.6h8.9c0.3,0,0.6-0.3,0.6-0.6S20.7,22.7,20.3,22.7z"/>
<path class="st0" d="M9.2,19.4c-0.1-0.1-0.3-0.2-0.4-0.2c-0.2,0-0.3,0.1-0.4,0.2c-0.1,0.1-0.2,0.3-0.2,0.4s0.1,0.3,0.2,0.4
	c0.1,0.1,0.3,0.2,0.4,0.2c0.2,0,0.3-0.1,0.4-0.2c0.1-0.1,0.2-0.3,0.2-0.4S9.3,19.5,9.2,19.4z"/>
<path class="st0" d="M9.2,22.9c-0.1-0.1-0.3-0.2-0.4-0.2c-0.2,0-0.3,0.1-0.4,0.2c-0.1,0.1-0.2,0.3-0.2,0.4s0.1,0.3,0.2,0.4
	C8.5,23.9,8.6,24,8.8,24c0.2,0,0.3-0.1,0.4-0.2c0.1-0.1,0.2-0.3,0.2-0.4S9.3,23,9.2,22.9z"/>
<path class="st0" d="M9.2,26.4c-0.1-0.1-0.3-0.2-0.4-0.2c-0.2,0-0.3,0.1-0.4,0.2c-0.1,0.1-0.2,0.3-0.2,0.4s0.1,0.3,0.2,0.4
	c0.1,0.1,0.3,0.2,0.4,0.2c0.2,0,0.3-0.1,0.4-0.2c0.1-0.1,0.2-0.3,0.2-0.4S9.3,26.5,9.2,26.4z"/>
<path class="st0" d="M20.3,19.2h-8.9c-0.3,0-0.6,0.3-0.6,0.6s0.3,0.6,0.6,0.6h8.9c0.3,0,0.6-0.3,0.6-0.6S20.7,19.2,20.3,19.2z"/>
<path class="st0" d="M34.4,10.5c-0.6-0.4-1.3-0.4-2-0.3c-0.7,0.2-1.2,0.6-1.6,1.2l-7.9,13.6c0,0.1-0.1,0.2-0.1,0.2l-0.6,5
	c0,0.2,0.1,0.5,0.3,0.6c0.1,0.1,0.2,0.1,0.3,0.1c0.1,0,0.3,0,0.4-0.1l4-3c0.1-0.1,0.1-0.1,0.2-0.2l7.9-13.6
	C36.1,12.8,35.6,11.2,34.4,10.5z M23.7,29l0.3-2.6l1.8,1L23.7,29z M26.7,26.5l-2.4-1.4l6.3-10.9l2.4,1.4L26.7,26.5z M34.3,13.4
	l-0.6,1.1l-2.4-1.4l0.6-1.1c0.2-0.3,0.5-0.5,0.8-0.6s0.7,0,1,0.1c0.3,0.2,0.5,0.5,0.6,0.8C34.5,12.8,34.5,13.1,34.3,13.4z"/>
</svg>
