<svg width="40" height="40" viewBox="0 0 40 40" fill="none" xmlns="http://www.w3.org/2000/svg">
<path fill-rule="evenodd" clip-rule="evenodd" d="M16.2121 5H24.3939C25.9002 5 27.1212 6.22104 27.1212 7.72727V9.09091H31.2121C32.7184 9.09091 33.9394 10.3119 33.9394 11.8182V14.5455C33.9394 16.0517 32.7184 17.2727 31.2121 17.2727H31.1029L29.8485 32.2727C29.8485 33.779 28.6275 35 27.1212 35H13.4849C11.9786 35 10.7576 33.779 10.7623 32.386L9.50287 17.2727H9.39394C7.88771 17.2727 6.66667 16.0517 6.66667 14.5455V11.8182C6.66667 10.3119 7.88771 9.09091 9.39394 9.09091H13.4848V7.72727C13.4848 6.22104 14.7059 5 16.2121 5ZM9.39395 11.8182H13.4848H27.1212H31.2121V14.5455H9.39395V11.8182ZM13.4849 32.2727L12.2392 17.2727H28.3665L27.126 32.1595L27.1212 32.2727H13.4849ZM24.3939 7.72728V9.09091H16.2121V7.72728H24.3939Z" fill="#212121"/>
</svg>
