<svg width="40" height="40" viewBox="0 0 40 40" fill="none" xmlns="http://www.w3.org/2000/svg">
<g id="Icono/Redes/Facebook">
<g id="icon">
<path d="M18.5551 20.0073H21.6667V30H25V20.0073H28.304V16.674H25V15C25 14.0795 25.7462 13.3333 26.6667 13.3333H28.3333V10H26.6667C23.9052 10 21.6667 12.2386 21.6667 15V16.674H18.5551V20.0073Z" fill="#212121"/>
<path fill-rule="evenodd" clip-rule="evenodd" d="M6.66667 3.33334H33.3333C35.1743 3.33334 36.6667 4.82572 36.6667 6.66667V33.3333C36.6667 35.1743 35.1743 36.6667 33.3333 36.6667H6.66667C4.82572 36.6667 3.33334 35.1743 3.33334 33.3333V6.66667C3.33334 4.82572 4.82572 3.33334 6.66667 3.33334ZM6.66667 6.66667V33.3333H33.3333V6.66667H6.66667Z" fill="#212121"/>
</g>
</g>
</svg>
