<svg width="40" height="40" viewBox="0 0 40 40" fill="none" xmlns="http://www.w3.org/2000/svg">
<path fill-rule="evenodd" clip-rule="evenodd" d="M0 20C0 31.0457 8.9543 40 20 40C31.0457 40 40 31.0457 40 20C40 8.9543 31.0457 0 20 0C8.9543 0 0 8.9543 0 20ZM36.3636 20C36.3636 29.0374 29.0374 36.3636 20 36.3636C10.9626 36.3636 3.63636 29.0374 3.63636 20C3.63636 10.9626 10.9626 3.63636 20 3.63636C29.0374 3.63636 36.3636 10.9626 36.3636 20ZM20.0583 32.7273C13.9538 32.7273 10.5571 29.512 10.5571 23.6364V21.8182H29.3014L29.3517 23.5846C29.5196 29.4808 26.1824 32.7273 20.0583 32.7273ZM25.6137 25.4545C25.1866 27.9918 23.4708 29.0909 20.0583 29.0909C16.6478 29.0909 14.876 27.9822 14.3578 25.4545H25.6137ZM23.6364 12.7273H29.0909V16.3636H23.6364V12.7273ZM16.3636 12.7273H10.9091V16.3636H16.3636V12.7273Z" fill="#212121"/>
</svg>
