<svg width="24" height="24" viewBox="0 0 24 24" fill="none" xmlns="http://www.w3.org/2000/svg">
<g id="Icono/Redes/Gitlab">
<path id="icon" fill-rule="evenodd" clip-rule="evenodd" d="M17.1056 3.55278L14.382 9H9.61803L6.89443 3.55278C6.48944 2.7428 5.30239 2.84525 5.04217 3.71265L2.04217 13.7126C1.92353 14.1081 2.06014 14.5359 2.38606 14.7893L11.3861 21.7893C11.7472 22.0702 12.2528 22.0702 12.6139 21.7893L21.6139 14.7893C21.9399 14.5359 22.0765 14.1081 21.9578 13.7126L18.9578 3.71265C18.6976 2.84525 17.5106 2.7428 17.1056 3.55278ZM15.8944 10.4472L17.7667 6.70258L19.8453 13.6312L12 19.7331L4.15467 13.6312L6.23326 6.70258L8.10557 10.4472C8.27496 10.786 8.62123 11 9 11H15C15.3788 11 15.725 10.786 15.8944 10.4472Z" fill="#212121"/>
</g>
</svg>
