<svg width="40" height="40" viewBox="0 0 40 40" fill="none" xmlns="http://www.w3.org/2000/svg">
<g id="Icono/Informacion">
<path id="icon" fill-rule="evenodd" clip-rule="evenodd" d="M1.66666 20C1.66666 30.1252 9.87478 38.3333 20 38.3333C30.1252 38.3333 38.3333 30.1252 38.3333 20C38.3333 9.87478 30.1252 1.66666 20 1.66666C9.87478 1.66666 1.66666 9.87478 1.66666 20ZM35 20C35 28.2843 28.2843 35 20 35C11.7157 35 5 28.2843 5 20C5 11.7157 11.7157 5 20 5C28.2843 5 35 11.7157 35 20ZM21.6727 23.3306H23.3383V26.6639H16.6716V23.3306H18.3383V19.9972H16.6716V16.6639H21.6727V23.3306ZM21.6678 13.3306C21.6678 14.251 20.9213 14.9972 20.0005 14.9972C19.0798 14.9972 18.3333 14.251 18.3333 13.3306C18.3333 12.4101 19.0798 11.6639 20.0005 11.6639C20.9213 11.6639 21.6678 12.4101 21.6678 13.3306Z" fill="#212121"/>
</g>
</svg>
