<svg width="40" height="40" viewBox="0 0 40 40" fill="none" xmlns="http://www.w3.org/2000/svg">
<g id="Icono/Redes/Linkedin">
<path id="icon" fill-rule="evenodd" clip-rule="evenodd" d="M6.66666 3.33334H33.3333C35.1743 3.33334 36.6667 4.82572 36.6667 6.66667V33.3333C36.6667 35.1743 35.1743 36.6667 33.3333 36.6667H6.66666C4.82571 36.6667 3.33333 35.1743 3.33333 33.3333V6.66667C3.33333 4.82572 4.82571 3.33334 6.66666 3.33334ZM6.66666 6.66667V33.3333H33.3333V6.66667H6.66666ZM21.6667 15C20.8038 15 19.8921 15.2638 19.0869 15.7536L18.3333 15H16.6667V26.6667H20V20C20 19.0404 20.9899 18.3333 21.6667 18.3333H23.3333C24.0101 18.3333 25 19.0404 25 20V26.6667H28.3333V20C28.3333 16.912 25.6566 15 23.3333 15H21.6667ZM13.3333 13.3333C14.2538 13.3333 15 12.5871 15 11.6667C15 10.7462 14.2538 10 13.3333 10C12.4129 10 11.6667 10.7462 11.6667 11.6667C11.6667 12.5871 12.4129 13.3333 13.3333 13.3333ZM11.6667 15V26.6667H15V15H11.6667Z" fill="black"/>
</g>
</svg>
