<svg width="40" height="40" viewBox="0 0 40 40" fill="none" xmlns="http://www.w3.org/2000/svg">
<g id="Icono/Lista">
<path id="icon" fill-rule="evenodd" clip-rule="evenodd" d="M3.33334 10C3.33334 11.841 4.82572 13.3333 6.66667 13.3333C8.50762 13.3333 10 11.841 10 10C10 8.15905 8.50762 6.66667 6.66667 6.66667C4.82572 6.66667 3.33334 8.15905 3.33334 10ZM36.6667 8.33333V11.6667H13.3333V8.33333H36.6667ZM36.6667 21.6667V18.3333H13.3333V21.6667H36.6667ZM13.3333 31.6667H36.6667V28.3333H13.3333V31.6667ZM3.33334 30C3.33334 31.8409 4.82572 33.3333 6.66667 33.3333C8.50762 33.3333 10 31.8409 10 30C10 28.1591 8.50762 26.6667 6.66667 26.6667C4.82572 26.6667 3.33334 28.1591 3.33334 30ZM6.66667 23.3333C4.82572 23.3333 3.33334 21.8409 3.33334 20C3.33334 18.1591 4.82572 16.6667 6.66667 16.6667C8.50762 16.6667 10 18.1591 10 20C10 21.8409 8.50762 23.3333 6.66667 23.3333Z" fill="#212121"/>
</g>
</svg>
