<svg width="40" height="40" viewBox="0 0 40 40" fill="none" xmlns="http://www.w3.org/2000/svg">
<path fill-rule="evenodd" clip-rule="evenodd" d="M31.6667 16.6667C31.6667 9.90137 27.936 5.20583 23.109 3.79619C22.9342 3.34394 22.6579 2.9235 22.2825 2.57072C20.9995 1.36532 19.0005 1.36532 17.7175 2.57072C17.3429 2.92272 17.067 3.34209 16.8922 3.7932C12.0589 5.19671 8.33333 9.88199 8.33333 16.6667C8.33333 21.0565 7.4483 23.5163 5.80993 25.2989C5.536 25.5969 4.79384 26.2796 4.29111 26.7421L4.29108 26.7421L4.29086 26.7423C4.05312 26.9611 3.86897 27.1305 3.81327 27.1866L3.33333 27.6733V33.3568H13.48C13.8231 35.1269 14.7835 36.3111 16.5203 37.371C18.6569 38.6748 21.3431 38.6748 23.4797 37.371C25.0125 36.4356 26.0402 34.9981 26.4572 33.3568H36.6667V27.6733L36.1867 27.1866C36.1362 27.1353 35.9595 26.9724 35.7286 26.7593L35.7284 26.7592C35.2272 26.2968 34.4704 25.5987 34.1923 25.2949C32.5528 23.504 31.6667 21.0411 31.6667 16.6667ZM22.8945 33.3568H16.9644C17.1998 33.7948 17.6012 34.1256 18.2567 34.5256C19.3271 35.1788 20.6729 35.1788 21.7433 34.5256C22.239 34.2231 22.6263 33.8229 22.8945 33.3568ZM31.7336 27.5457C32.0843 27.9288 32.836 28.6291 33.3333 29.0865V30.0235H6.66666V29.0873C7.16011 28.6352 7.91405 27.9354 8.26414 27.5545C10.4904 25.1323 11.6667 21.863 11.6667 16.6667C11.6667 10.3665 15.5546 6.6873 20 6.6873C24.4328 6.6873 28.3333 10.3855 28.3333 16.6667C28.3333 21.8463 29.51 25.1167 31.7336 27.5457Z" fill="#212121"/>
</svg>
