<svg width="32" height="28" viewBox="0 0 32 28" fill="none" xmlns="http://www.w3.org/2000/svg">
<path d="M0.136039 9.94948C0.0349519 10.0625 -0.0133944 10.2132 0.0032094 10.3638L1.79178 26.4839C1.85282 27.0216 2.18245 27.4913 2.66713 27.7316C2.76627 27.8425 2.90764 27.9064 3.05659 27.9077H28.6374C29.4429 27.9062 30.1222 27.3075 30.225 26.5086L32.0001 12.5062C32.0001 12.5004 32.0001 12.4955 32.0001 12.4896C31.9972 12.4205 31.9906 12.3514 31.9798 12.283C31.9674 12.2511 31.9518 12.2203 31.9334 12.1915C31.9198 12.1607 31.9034 12.1314 31.8844 12.1038C31.8629 12.0818 31.8397 12.0616 31.815 12.043C31.7874 12.0162 31.7567 11.9922 31.7237 11.9722C31.7183 11.9722 31.7156 11.9642 31.7103 11.9615L29.2307 10.7223L27.5584 3.25475C27.5273 3.11606 27.4426 2.99544 27.3222 2.91974C27.2021 2.8438 27.0568 2.81914 26.9184 2.85089L13.8434 5.78682L8.33561 0.277303C8.12733 0.0690239 7.78964 0.0690239 7.58136 0.277303L0.156306 7.70382C-0.0519736 7.9121 -0.0519736 8.24979 0.156306 8.45807L1.4702 9.77197H0.533553C0.381677 9.77197 0.237371 9.83643 0.136039 9.94948V9.94948ZM29.2759 25.5126L27.6804 11.1401L30.8942 12.7467L29.2759 25.5126ZM28.0001 10.107L27.4421 9.82788C27.3447 9.78247 27.2358 9.76806 27.1301 9.78686C27.1042 9.77978 27.0778 9.77465 27.0512 9.77197H24.1744L20.5794 7.204C20.4461 7.10877 20.2764 7.07996 20.1191 7.12611C19.9621 7.17201 19.8347 7.28775 19.7739 7.43987L18.9359 9.53829L15.7355 7.70871C15.5702 7.61323 15.3668 7.61348 15.2015 7.70895C15.0364 7.80442 14.9351 7.98096 14.9354 8.17166V9.77197H11.879L11.3536 7.43865L26.6344 4.0112L28.0001 10.107ZM22.3389 9.77197H19.9919L20.5142 8.46711L22.3389 9.77197ZM17.1944 9.77197H16.0021V9.09072L17.1944 9.77197ZM1.2878 8.08107L7.95836 1.41027L12.6113 6.06322L10.5988 6.51812C10.4602 6.54913 10.3398 6.6341 10.2641 6.75423C10.1884 6.87437 10.1637 7.01989 10.1955 7.1581L10.7854 9.77197H2.9787L1.2878 8.08107ZM26.5736 10.8388L26.7418 12.3497C26.7331 12.379 26.7269 12.4088 26.7235 12.4388C26.7245 12.5165 26.7428 12.5927 26.777 12.6625L27.4026 18.3063H18.6692C18.3745 18.3063 18.1357 18.5451 18.1357 18.8398C18.1357 19.1343 18.3745 19.3731 18.6692 19.3731H27.5237L28.2865 26.2488C28.3031 26.3999 28.2545 26.551 28.1527 26.6643C28.0511 26.7774 27.9058 26.8416 27.7537 26.8409H3.38232C3.1108 26.8406 2.8825 26.636 2.85271 26.366L2.07672 19.3731H10.1347C10.4294 19.3731 10.6682 19.1343 10.6682 18.8398C10.6682 18.5451 10.4294 18.3063 10.1347 18.3063H1.9583L1.12933 10.8388H26.5736Z" fill="#212121"/>
<path d="M14.402 21.5066C15.8748 21.5066 17.0688 20.3126 17.0688 18.8397C17.0688 17.3666 15.8748 16.1726 14.402 16.1726C12.9289 16.1726 11.7349 17.3666 11.7349 18.8397C11.7366 20.3118 12.9296 21.5049 14.402 21.5066V21.5066ZM14.402 17.2394C15.2856 17.2394 16.002 17.9558 16.002 18.8397C16.002 19.7234 15.2856 20.4398 14.402 20.4398C13.5181 20.4398 12.8017 19.7234 12.8017 18.8397C12.8017 17.9558 13.5181 17.2394 14.402 17.2394Z" fill="#212121"/>
<path d="M24.5366 8.70501C25.4202 8.70501 26.1366 7.98836 26.1366 7.1047C26.1366 6.22104 25.4202 5.50439 24.5366 5.50439C23.6527 5.50439 22.9363 6.22104 22.9363 7.1047C22.9363 7.98836 23.6527 8.70501 24.5366 8.70501V8.70501ZM24.5366 6.57119C24.8311 6.57119 25.0699 6.80999 25.0699 7.1047C25.0699 7.39918 24.8311 7.63798 24.5366 7.63798C24.2419 7.63798 24.0031 7.39918 24.0031 7.1047C24.0031 6.80999 24.2419 6.57119 24.5366 6.57119V6.57119Z" fill="#212121"/>
<path d="M8.46901 3.52706C8.26073 3.31878 7.92304 3.31878 7.71476 3.52706L3.44759 7.79447C3.3089 7.92828 3.25323 8.12654 3.30207 8.31309C3.3509 8.49964 3.49643 8.64517 3.68298 8.694C3.86953 8.74284 4.06779 8.68717 4.20184 8.54847L8.46901 4.28131C8.67729 4.07303 8.67729 3.73534 8.46901 3.52706Z" fill="#212121"/>
</svg>
