<?xml version="1.0" encoding="utf-8"?>
<!-- Generator: Adobe Illustrator 21.0.0, SVG Export Plug-In . SVG Version: 6.00 Build 0)  -->
<svg version="1.1" id="Capa_1" xmlns="http://www.w3.org/2000/svg" xmlns:xlink="http://www.w3.org/1999/xlink" x="0px" y="0px"
	 viewBox="0 0 38 33.3" style="enable-background:new 0 0 38 33.3;" xml:space="preserve">
<style type="text/css">
	.st0{fill:#212121;}
</style>
<path class="st0" d="M3.1,11.9C3,12.1,3,12.2,3,12.4l1.8,16.1c0.1,0.5,0.4,1,0.9,1.2c0.1,0.1,0.2,0.2,0.4,0.2h25.6
	c0.8,0,1.5-0.6,1.6-1.4l1.8-14c0,0,0,0,0,0c0-0.1,0-0.1,0-0.2c0,0,0-0.1,0-0.1c0,0,0-0.1,0-0.1c0,0,0,0-0.1-0.1c0,0-0.1-0.1-0.1-0.1
	c0,0,0,0,0,0l-2.5-1.2l-1.7-7.5c0-0.1-0.1-0.3-0.2-0.3c-0.1-0.1-0.3-0.1-0.4-0.1L16.8,7.8l-5.5-5.5c-0.2-0.2-0.5-0.2-0.8,0L3.2,9.7
	c-0.2,0.2-0.2,0.5,0,0.8l1.3,1.3H3.5C3.4,11.8,3.2,11.8,3.1,11.9L3.1,11.9z M32.3,27.5l-1.6-14.4l3.2,1.6L32.3,27.5z M31,12.1
	l-0.6-0.3c-0.1,0-0.2-0.1-0.3,0c0,0-0.1,0-0.1,0h-2.9l-3.6-2.6c-0.1-0.1-0.3-0.1-0.5-0.1c-0.2,0-0.3,0.2-0.3,0.3l-0.8,2.1l-3.2-1.8
	c-0.2-0.1-0.4-0.1-0.5,0c-0.2,0.1-0.3,0.3-0.3,0.5v1.6h-3.1l-0.5-2.3L29.6,6L31,12.1z M25.3,11.8H23l0.5-1.3L25.3,11.8z M20.2,11.8
	H19v-0.7L20.2,11.8z M4.3,10.1L11,3.4l4.7,4.7l-2,0.5c-0.1,0-0.3,0.1-0.3,0.2c-0.1,0.1-0.1,0.3-0.1,0.4l0.6,2.6H6L4.3,10.1z
	 M29.6,12.8l0.2,1.5c0,0,0,0.1,0,0.1c0,0.1,0,0.2,0.1,0.2l0.6,5.6h-8.7c-0.3,0-0.5,0.2-0.5,0.5c0,0.3,0.2,0.5,0.5,0.5h8.9l0.8,6.9
	c0,0.2,0,0.3-0.1,0.4c-0.1,0.1-0.2,0.2-0.4,0.2H6.4c-0.3,0-0.5-0.2-0.5-0.5l-0.8-7h8.1c0.3,0,0.5-0.2,0.5-0.5c0-0.3-0.2-0.5-0.5-0.5
	H5l-0.8-7.5H29.6z"/>
<path class="st0" d="M17.4,23.5c1.5,0,2.7-1.2,2.7-2.7c0-1.5-1.2-2.7-2.7-2.7c-1.5,0-2.7,1.2-2.7,2.7C14.7,22.3,15.9,23.5,17.4,23.5
	L17.4,23.5z M17.4,19.2c0.9,0,1.6,0.7,1.6,1.6c0,0.9-0.7,1.6-1.6,1.6c-0.9,0-1.6-0.7-1.6-1.6C15.8,20,16.5,19.2,17.4,19.2z"/>
<path class="st0" d="M27.5,10.7c0.9,0,1.6-0.7,1.6-1.6s-0.7-1.6-1.6-1.6c-0.9,0-1.6,0.7-1.6,1.6S26.7,10.7,27.5,10.7L27.5,10.7z
	 M27.5,8.6c0.3,0,0.5,0.2,0.5,0.5c0,0.3-0.2,0.5-0.5,0.5c-0.3,0-0.5-0.2-0.5-0.5C27,8.8,27.2,8.6,27.5,8.6L27.5,8.6z"/>
<path class="st0" d="M11.5,5.5c-0.2-0.2-0.5-0.2-0.8,0L6.4,9.8c-0.1,0.1-0.2,0.3-0.1,0.5c0,0.2,0.2,0.3,0.4,0.4c0.2,0,0.4,0,0.5-0.1
	l4.3-4.3C11.7,6.1,11.7,5.7,11.5,5.5z"/>
<path class="st0" d="M13.1,7.1c-0.2-0.2-0.5-0.2-0.8,0L9.6,9.8c-0.1,0.1-0.2,0.3-0.1,0.5c0,0.2,0.2,0.3,0.4,0.4c0.2,0,0.4,0,0.5-0.1
	l2.7-2.7C13.3,7.7,13.3,7.3,13.1,7.1z"/>
</svg>
