<svg width="18" height="18" viewBox="0 0 18 18" fill="none" xmlns="http://www.w3.org/2000/svg">
<path fill-rule="evenodd" clip-rule="evenodd" d="M8.02141 14.6667C5.78308 14.6667 4.53764 13.4877 4.53764 11.3333V10.6667H11.4105L11.429 11.3144C11.4905 13.4763 10.2669 14.6667 8.02141 14.6667ZM10.0584 12C9.90176 12.9303 9.27265 13.3333 8.02141 13.3333C6.77087 13.3333 6.12122 12.9268 5.9312 12H10.0584Z" fill="#AAAAAA"/>
<path d="M9.33335 7.33333H11.3334V8.66667H9.33335V7.33333Z" fill="#AAAAAA"/>
<path d="M6.66669 7.33333H4.66669V8.66667H6.66669V7.33333Z" fill="#AAAAAA"/>
<path fill-rule="evenodd" clip-rule="evenodd" d="M0.666687 10C0.666687 14.0501 3.94993 17.3333 8.00002 17.3333C12.0501 17.3333 15.3334 14.0501 15.3334 10C15.3334 5.94991 12.0501 2.66667 8.00002 2.66667C3.94993 2.66667 0.666687 5.94991 0.666687 10ZM14 10C14 13.3137 11.3137 16 8.00002 16C4.68631 16 2.00002 13.3137 2.00002 10C2.00002 6.68629 4.68631 4 8.00002 4C11.3137 4 14 6.68629 14 10Z" fill="#AAAAAA"/>
<path d="M16.6 4.27121C16.6 3.93984 16.3314 3.67121 16 3.67121H14.4303V2C14.4303 1.66863 14.1617 1.4 13.8303 1.4H12.8364C12.505 1.4 12.2364 1.66863 12.2364 2V3.67121H10.6667C10.3353 3.67121 10.0667 3.93984 10.0667 4.27121V5.20641C10.0667 5.53778 10.3353 5.80641 10.6667 5.80641H12.2364V7.66466C12.2364 7.99603 12.505 8.26466 12.8364 8.26466H13.8303C14.1617 8.26466 14.4303 7.99603 14.4303 7.66466V5.80641H16C16.3314 5.80641 16.6 5.53778 16.6 5.20641V4.27121Z" fill="#AAAAAA" stroke="white" stroke-width="1.2" stroke-linejoin="round"/>
</svg>
