<svg width="42" height="42" viewBox="0 0 42 42" fill="none" xmlns="http://www.w3.org/2000/svg">
<path fill-rule="evenodd" clip-rule="evenodd" d="M20.0535 33.6667C14.4576 33.6667 11.344 30.7193 11.344 25.3333V23.6667H28.5263L28.5724 25.2859C28.7263 30.6908 25.6672 33.6667 20.0535 33.6667ZM25.1459 27C24.7544 29.3258 23.1816 30.3333 20.0535 30.3333C16.9271 30.3333 15.303 29.3171 14.8279 27H25.1459Z" fill="#212121"/>
<path d="M23.3333 15.3333H28.3333V18.6667H23.3333V15.3333Z" fill="#212121"/>
<path d="M16.6667 15.3333H11.6667V18.6667H16.6667V15.3333Z" fill="#212121"/>
<path fill-rule="evenodd" clip-rule="evenodd" d="M1.66666 22C1.66666 32.1252 9.87478 40.3333 20 40.3333C30.1252 40.3333 38.3333 32.1252 38.3333 22C38.3333 11.8748 30.1252 3.66667 20 3.66667C9.87478 3.66667 1.66666 11.8748 1.66666 22ZM35 22C35 30.2843 28.2843 37 20 37C11.7157 37 5 30.2843 5 22C5 13.7157 11.7157 7 20 7C28.2843 7 35 13.7157 35 22Z" fill="#212121"/>
<path d="M40.6 7.67802C40.6 7.34665 40.3314 7.07802 40 7.07802H35.1758V2C35.1758 1.66863 34.9072 1.4 34.5758 1.4H32.0909C31.7595 1.4 31.4909 1.66863 31.4909 2V7.07802H26.6667C26.3353 7.07802 26.0667 7.34665 26.0667 7.67802V10.016C26.0667 10.3474 26.3353 10.616 26.6667 10.616H31.4909V16.1617C31.4909 16.493 31.7595 16.7617 32.0909 16.7617H34.5758C34.9072 16.7617 35.1758 16.493 35.1758 16.1617V10.616H40C40.3314 10.616 40.6 10.3474 40.6 10.016V7.67802Z" fill="black" stroke="#EEEEEE" stroke-width="1.2" stroke-linejoin="round"/>
</svg>
