<svg width="40" height="40" viewBox="0 0 40 40" fill="none" xmlns="http://www.w3.org/2000/svg">
<g id="Icono/Seguridad">
<path id="icon" fill-rule="evenodd" clip-rule="evenodd" d="M20 38.3333C10 33.8785 5 29.434 5 25V8.33333C5 7.05401 5.491 6.75669 6.84988 5.93382C7.26132 5.68467 7.75231 5.38735 8.33333 5C8.60299 4.82023 14.272 1.66667 20 1.66667C24.9921 1.66667 29.1667 3.33333 31.6667 5C32.2477 5.38735 32.7387 5.68467 33.1501 5.93382C34.509 6.75669 35 7.05401 35 8.33333C35.0328 8.69541 35.0167 16.3958 35.0064 21.3251V21.3251L35.0064 21.3268C35.0028 23.0067 35 24.3645 35 25C35 29.4444 30 33.8889 20 38.3333ZM31.6667 25C31.6667 24.6161 31.6677 23.973 31.6697 22.9245L31.6765 19.669C31.6786 18.6159 31.6803 17.7121 31.6817 16.8496C31.6879 13.1294 31.6862 9.93637 31.6826 8.94881L31.4537 8.80673C30.9148 8.47238 30.2123 8.03658 29.8177 7.7735C27.3572 6.13319 23.767 5 20 5C16.3968 5 11.7144 6.75213 10.1823 7.7735C9.78774 8.03656 9.08532 8.47233 8.54638 8.80667L8.54634 8.8067L8.33333 8.93889V25C8.33333 27.5141 12.0485 30.9479 20.0015 34.67C27.9536 30.9562 31.6667 27.5237 31.6667 25ZM25.4882 13.8215L18.3333 20.9763L14.5118 17.1548L12.1548 19.5118L18.3333 25.6904L27.8452 16.1785L25.4882 13.8215Z" fill="#212121"/>
</g>
</svg>
