<svg width="40" height="40" viewBox="0 0 40 40" fill="none" xmlns="http://www.w3.org/2000/svg">
<g id="Icono/Contacto/Telefono">
<path id="icon" fill-rule="evenodd" clip-rule="evenodd" d="M18.0943 13.8966C18.9578 12.7329 19.2674 11.5065 18.2908 10.424C16.0993 7.35734 14.6254 5.46094 13.7008 4.54768C11.9432 2.81146 9.05197 3.04631 7.52976 4.5462C6.71216 5.3518 6.43538 5.62845 5.59588 6.48113C0.9198 11.1597 3.77152 21.0501 11.3524 28.6385C18.9316 36.2251 28.8211 39.0784 33.507 34.3899C34.2816 33.6431 34.9375 32.9868 35.4548 32.4401C36.9465 30.8634 37.173 28.0996 35.445 26.3042C34.559 25.3836 32.7507 23.9809 29.555 21.695C28.5763 20.8198 27.4158 21.0095 26.3518 21.7075C25.8401 22.0433 25.4676 22.3829 24.7644 23.0869L23.4873 24.3647C23.3191 24.533 21.0351 23.3891 18.818 21.1698C16.5996 18.9493 15.4566 16.6652 15.624 16.4978L16.902 15.2192C17.1251 14.9958 17.2318 14.8877 17.3686 14.7439C17.6536 14.4444 17.8896 14.1725 18.0943 13.8966ZM25.843 26.7217L27.1203 25.4437C27.5074 25.0562 27.7582 24.818 27.9623 24.6538C30.7617 26.6641 32.383 27.9282 33.0452 28.6163C33.4428 29.0294 33.381 29.7832 33.0354 30.1485C32.5571 30.6541 31.9356 31.2759 31.173 32.0114C28.1429 35.0428 20.1599 32.7396 13.7087 26.282C7.25535 19.8223 4.95325 11.8381 7.96043 8.82926C8.79654 7.98008 9.06144 7.71531 9.86736 6.92121C10.1695 6.62346 10.9926 6.55661 11.3602 6.91973C12.072 7.62285 13.3923 9.31343 15.3346 12.019C15.2341 12.1438 15.1085 12.2849 14.9557 12.4455C14.8435 12.5634 14.75 12.6581 14.5457 12.8626L13.269 14.14C11.0971 16.3118 12.9468 20.008 16.4617 23.5264C19.9742 27.0423 23.6718 28.8941 25.843 26.7217Z" fill="#212121"/>
</g>
</svg>
