<svg width="40" height="40" viewBox="0 0 40 40" fill="none" xmlns="http://www.w3.org/2000/svg">
<g id="Icono/Tiempo">
<path id="icon" fill-rule="evenodd" clip-rule="evenodd" d="M20 38.3333C9.87478 38.3333 1.66666 30.1252 1.66666 20C1.66666 9.87478 9.87478 1.66667 20 1.66667C30.1252 1.66667 38.3333 9.87478 38.3333 20C38.3333 30.1252 30.1252 38.3333 20 38.3333ZM20 35C28.2843 35 35 28.2843 35 20C35 11.7157 28.2843 5.00001 20 5.00001C11.7157 5.00001 5 11.7157 5 20C5 28.2843 11.7157 35 20 35ZM28.3333 18.3333H21.6667V10H18.3333V21.6667H28.3333V18.3333Z" fill="black"/>
</g>
</svg>
