<svg width="40" height="40" viewBox="0 0 40 40" fill="none" xmlns="http://www.w3.org/2000/svg">
<g id="Icono/Redes/Twitter">
<path id="icon" fill-rule="evenodd" clip-rule="evenodd" d="M35.1992 7.51379L37.5571 7.78916L36.4972 9.91333C35.9804 10.9492 35.463 11.9851 34.9451 13.021C34.8836 13.2404 34.7757 13.4327 34.6161 13.6831C34.5494 13.7878 34.3215 14.1206 34.3109 14.1366C34.2507 14.2268 34.2062 14.298 34.1742 14.355V18.3359C34.1742 28.5225 24.3159 34.9957 15.0059 34.9957C13.1008 34.9957 11.6534 34.9044 9.99607 34.5428C7.26858 33.9476 5.23878 32.7644 4.30995 30.6966L3.35368 28.5678L5.67764 28.3541C7.78 28.1607 9.60281 27.7602 11.0026 27.2239C7.15961 26.6058 5.00599 24.918 5.00599 21.7481V20.0815H6.67266C7.03885 20.0815 7.36904 20.0518 7.66424 19.9972C4.78 18.2727 3.33536 15.5063 3.33536 11.6692C3.33505 11.5057 3.33505 11.5057 3.33407 11.3308C3.32323 9.39671 3.42712 8.36328 3.95657 7.04432C4.2959 6.19902 4.78638 5.41648 5.44649 4.69945L6.70418 3.33334L7.92695 4.73078C11.9566 9.33601 15.9399 12.1299 20.0069 12.4679C20.0243 8.21841 23.2359 5.00254 27.5072 5.00254C29.4985 5.00254 31.3047 5.75836 32.7241 7.12121C33.501 7.28085 34.3261 7.41182 35.1992 7.51379ZM31.5144 10.27L31.0035 10.1543L30.6506 9.76713C29.7974 8.83092 28.7266 8.33587 27.5072 8.33587C25.0689 8.33587 23.3402 10.0732 23.3402 12.5025C23.3402 12.8996 23.3299 13.149 23.2805 13.4769C23.0831 14.7853 22.3493 15.8359 20.8402 15.8359C15.8434 15.8359 11.3356 13.159 6.93982 8.58714C6.7132 9.27602 6.65991 9.98413 6.66735 11.3121C6.66835 11.4897 6.66835 11.4897 6.6687 11.6692C6.6687 15.0826 8.05155 16.9496 11.3258 17.9903L12.4876 18.3596V19.5787C12.4876 21.057 11.087 22.4486 9.0378 23.0719C9.97718 23.7846 11.8983 24.1692 15.0065 24.1692H16.6732V25.8359C16.6732 28.2238 13.9294 30.0934 9.78458 31.0698C11.1363 31.4839 12.9361 31.6624 15.0059 31.6624C22.6966 31.6624 30.8409 26.3147 30.8409 18.3359V14.1692C30.8409 13.6796 30.9828 13.2546 31.2186 12.8127C31.3108 12.6399 31.4123 12.4752 31.5376 12.2873C31.5611 12.2519 31.6486 12.1238 31.7181 12.0213L31.8502 11.7571C32.0642 11.3291 32.2782 10.901 32.4921 10.473C32.1597 10.41 31.8338 10.3424 31.5144 10.27Z" fill="#212121"/>
</g>
</svg>
