<svg width="40" height="40" viewBox="0 0 40 40" fill="none" xmlns="http://www.w3.org/2000/svg">
<g id="Icono/Contacto/Ubicacion">
<g id="icon">
<path fill-rule="evenodd" clip-rule="evenodd" d="M20 8.33333C24.6024 8.33333 28.3333 12.0643 28.3333 16.6667C28.3333 21.269 24.6024 25 20 25C15.3976 25 11.6667 21.269 11.6667 16.6667C11.6667 12.0643 15.3976 8.33333 20 8.33333ZM15 16.6667C15 13.9052 17.2386 11.6667 20 11.6667C22.7614 11.6667 25 13.9052 25 16.6667C25 19.4281 22.7614 21.6667 20 21.6667C17.2386 21.6667 15 19.4281 15 16.6667Z" fill="#212121"/>
<path fill-rule="evenodd" clip-rule="evenodd" d="M20 38.8793L21.0962 37.9221C30.3145 29.8729 35 22.8446 35 16.6667C35 7.91777 28.1716 1.66666 20 1.66666C11.8284 1.66666 5 7.91777 5 16.6667C5 22.8446 9.68551 29.8729 18.9038 37.9221L20 38.8793ZM20 34.439C12.1777 27.3892 8.33333 21.4154 8.33333 16.6667C8.33333 9.82767 13.6069 5 20 5C26.3931 5 31.6667 9.82767 31.6667 16.6667C31.6667 21.4154 27.8223 27.3892 20 34.439Z" fill="#212121"/>
</g>
</g>
</svg>
