<svg width="25" height="24" viewBox="0 0 25 24" fill="none" xmlns="http://www.w3.org/2000/svg">
<path d="M2.05005 9.23219C2.10527 9.19524 1.84998 9.36592 2.59001 8.8711C3.10077 8.53685 3.55312 8.26011 3.915 8.26011C4.01067 8.26011 4.30138 8.26011 4.62986 8.74184C5.5364 10.0697 6.10389 12.2111 6.65359 14.2855C7.27361 16.6232 7.91462 19.0403 9.04977 20.3763C9.59024 21.0113 10.2761 21.3333 11.0879 21.3333C12.1669 21.3333 13.4625 20.7595 14.6426 19.7587C18.0267 16.8889 23.2488 10.6805 22.9908 6.28546C22.8663 4.16381 21.4681 3 19.5162 3C17.8409 3 16.0936 3.86039 15.0646 5.19207C14.2191 6.28678 14.0335 7.04973 13.6511 7.8614L14.8031 7.67928C14.983 7.65078 15.1433 7.63686 15.2932 7.63686C15.7615 7.63686 16.1228 7.77838 16.3983 8.07004C16.6794 8.367 16.7957 8.7788 16.7538 9.32864C16.6185 11.0978 14.8037 13.7179 13.6463 14.6209C13.5041 14.7319 13.3235 14.7982 13.1635 14.7982C13.0182 14.7982 12.632 14.7982 12.1771 13.6652C11.4172 11.7733 10.8739 7.2935 10.0622 4.84291C9.75238 3.90861 8.88461 3.30491 7.85134 3.30491C7.15948 3.30491 6.44764 3.57586 5.7932 4.08792C2.85991 6.38041 2.23049 6.93887 1 7.93283L2.05005 9.23219ZM6.5935 5.08535C7.01815 4.75309 7.45304 4.57744 7.85134 4.57744C8.32433 4.57744 8.70216 4.83098 8.83744 5.23864C9.53703 7.35084 10.2274 12.2628 10.979 14.1342C11.1714 14.6133 11.7566 16.0706 13.1635 16.0706C13.6107 16.0706 14.078 15.906 14.4455 15.6192C15.7982 14.5639 17.8708 11.6259 18.039 9.42426C18.1085 8.51249 17.8733 7.76462 17.3404 7.20186C16.9282 6.76503 16.3946 6.49243 15.7787 6.3998C15.8744 6.25331 15.9778 6.10831 16.0894 5.9638C16.8832 4.93637 18.2283 4.27236 19.5162 4.27236C20.4585 4.27236 21.6029 4.63444 21.7041 6.35887C21.9329 10.2556 16.8619 16.1993 13.8029 18.7934C12.8809 19.5751 11.8406 20.0608 11.0879 20.0608C10.6569 20.0608 10.3326 19.9055 10.0367 19.558C9.08804 18.4416 8.48429 16.1649 7.89951 13.96C7.32346 11.786 6.72777 9.5381 5.69887 8.03093C5.2054 7.30725 4.62835 7.06332 4.16643 7.00366C5.01691 6.32059 5.85245 5.66452 6.5935 5.08535Z" fill="#212121" stroke="black" stroke-width="0.5"/>
</svg>
