<svg width="40" height="40" viewBox="0 0 40 40" fill="none" xmlns="http://www.w3.org/2000/svg">
<g id="Icono/Redes/Youtube">
<path id="icon" fill-rule="evenodd" clip-rule="evenodd" d="M38.2268 31.1421C39.4692 29.013 40 25.5798 40 19.9949C40 14.4323 39.4742 11.0191 38.2186 8.83278C36.9602 6.56248 35.4678 5.84187 32.506 5.66891C30.484 5.53186 25.4587 5.45454 20.0048 5.45454C14.5393 5.45454 9.51172 5.53183 7.47455 5.66998C4.5293 5.84229 3.03656 6.56448 1.76715 8.84109C0.529789 11.0198 0 14.4498 0 20.0153C0 25.5492 0.532354 28.9964 1.77802 31.168C3.03093 33.4152 4.49988 34.1287 7.47019 34.3373C9.60501 34.4623 14.9171 34.5455 20.0048 34.5455C25.0812 34.5455 30.3907 34.4623 32.506 34.3387C35.5036 34.1288 36.9723 33.4141 38.2268 31.1421ZM32.2771 9.29802C34.1298 9.40629 34.4733 9.57282 35.0606 10.6357C35.9155 12.1164 36.3636 15.014 36.3636 20.0153C36.3636 24.9787 35.9132 27.8923 35.0646 29.3473C34.4753 30.4135 34.1341 30.5795 32.2729 30.7099C30.2708 30.8267 25.0127 30.9091 20.0049 30.9091C14.9857 30.9091 9.72499 30.8267 7.7037 30.7086C5.86548 30.5793 5.51937 30.4112 4.94316 29.3778C4.08884 27.8882 3.63637 24.9583 3.63637 19.9949C3.63637 15.0345 4.08644 12.1207 4.93618 10.6244C5.52136 9.57503 5.8699 9.40641 7.70381 9.29907C9.6456 9.16746 14.6259 9.09091 20.0049 9.09091C25.3723 9.09091 30.3502 9.16749 32.2771 9.29802ZM16.6667 15L25 20L16.6667 25V15Z" fill="black"/>
</g>
</svg>
