<svg width="40" height="40" viewBox="0 0 40 40" fill="none" xmlns="http://www.w3.org/2000/svg">
<g id="Icono/Adjuntar">
<path id="icon" fill-rule="evenodd" clip-rule="evenodd" d="M22.2386 10.906L24.6136 13.2449L14.0833 23.9378C13.5549 24.4771 13.5549 25.3451 14.0833 25.8844C14.5847 26.3962 15.4223 26.3938 15.9183 25.8816L27.504 14.1122C29.1954 12.3862 29.1954 9.61415 27.504 7.8881C25.8903 6.24127 23.035 6.2779 21.4534 7.89124L8.80793 20.7282C5.95292 23.6405 5.95292 28.3171 8.80793 31.2295C11.5803 34.0576 16.3428 34.0115 19.0718 31.2269L33.8201 16.2482L36.1954 18.5869L21.4497 33.5628C17.4266 37.6679 10.5172 37.7347 6.42758 33.563C2.30193 29.3544 2.30193 22.6033 6.43042 18.3918L19.0759 5.55489C21.9483 2.62477 26.9505 2.56059 29.8848 5.55513C32.8462 8.57723 32.8462 13.4231 29.8822 16.4479L18.3035 28.2101C16.5123 30.06 13.5159 30.0683 11.7022 28.2172C9.90409 26.3818 9.90409 23.4403 11.7052 21.6019L22.2386 10.906Z" fill="#212121"/>
</g>
</svg>
