<svg width="40" height="40" viewBox="0 0 40 40" fill="none" xmlns="http://www.w3.org/2000/svg">
<path fill-rule="evenodd" clip-rule="evenodd" d="M11.5617 9.74229C11.6798 9.57814 11.8109 9.37718 11.9782 9.1062C12.0392 9.00724 12.2057 8.73256 12.3298 8.52792L12.3299 8.52763C12.3961 8.4184 12.4502 8.32917 12.4697 8.29735C13.8513 6.03731 14.8557 5 16.6667 5H25V8.33333H16.6667C16.5221 8.33333 16.0675 8.80287 15.3137 10.036C15.2981 10.0614 15.2518 10.1378 15.1926 10.2355L15.1924 10.2358C15.0673 10.4422 14.885 10.743 14.8148 10.8568C14.6099 11.1889 14.4396 11.4498 14.2677 11.6888C13.5206 12.7273 12.7739 13.3333 11.6667 13.3333H6.66667C5.7462 13.3333 5 14.0795 5 15V30C5 30.9205 5.7462 31.6667 6.66667 31.6667H33.3333C34.2538 31.6667 35 30.9205 35 30V20H38.3333V30C38.3333 32.7614 36.0948 35 33.3333 35H6.66667C3.90525 35 1.66667 32.7614 1.66667 30V15C1.66667 12.2386 3.90525 10 6.66667 10H11.3603C11.4158 9.93657 11.4838 9.85055 11.5617 9.74229ZM28.3333 13.3333V10H31.6667V6.66667H35V10H38.3333V13.3333H35V16.6667H31.6667V13.3333H28.3333ZM20 30C15.3976 30 11.6667 26.269 11.6667 21.6667C11.6667 17.0643 15.3976 13.3333 20 13.3333C24.6024 13.3333 28.3333 17.0643 28.3333 21.6667C28.3333 26.269 24.6024 30 20 30ZM20 26.6667C22.7614 26.6667 25 24.4281 25 21.6667C25 18.9052 22.7614 16.6667 20 16.6667C17.2386 16.6667 15 18.9052 15 21.6667C15 24.4281 17.2386 26.6667 20 26.6667Z" fill="#212121"/>
</svg>
