<svg width="40" height="40" viewBox="0 0 40 40" fill="none" xmlns="http://www.w3.org/2000/svg">
<g id="Icono/Mas">
<path id="icon" fill-rule="evenodd" clip-rule="evenodd" d="M8.33333 23.3333C6.49238 23.3333 5 21.8409 5 20C5 18.159 6.49238 16.6667 8.33333 16.6667C10.1743 16.6667 11.6667 18.159 11.6667 20C11.6667 21.8409 10.1743 23.3333 8.33333 23.3333ZM20 23.3333C18.159 23.3333 16.6667 21.8409 16.6667 20C16.6667 18.159 18.159 16.6667 20 16.6667C21.8409 16.6667 23.3333 18.159 23.3333 20C23.3333 21.8409 21.8409 23.3333 20 23.3333ZM28.3333 20C28.3333 21.8409 29.8257 23.3333 31.6667 23.3333C33.5076 23.3333 35 21.8409 35 20C35 18.159 33.5076 16.6667 31.6667 16.6667C29.8257 16.6667 28.3333 18.159 28.3333 20Z" fill="#212121"/>
</g>
</svg>
