<svg width="40" height="40" viewBox="0 0 40 40" fill="none" xmlns="http://www.w3.org/2000/svg">
<g id="Icono/Alerta/1">
<path id="icon" fill-rule="evenodd" clip-rule="evenodd" d="M1.66667 20C1.66667 30.1252 9.87478 38.3333 20 38.3333C30.1252 38.3333 38.3333 30.1252 38.3333 20C38.3333 9.87478 30.1252 1.66667 20 1.66667C9.87478 1.66667 1.66667 9.87478 1.66667 20ZM35 20C35 28.2843 28.2843 35 20 35C11.7157 35 5 28.2843 5 20C5 11.7157 11.7157 5 20 5C28.2843 5 35 11.7157 35 20ZM20.0006 29.9972C20.9213 29.9972 21.6678 29.2511 21.6678 28.3306C21.6678 27.4101 20.9213 26.6639 20.0006 26.6639C19.0798 26.6639 18.3333 27.4101 18.3333 28.3306C18.3333 29.2511 19.0798 29.9972 20.0006 29.9972ZM21.6727 9.99724H18.3383V23.3306H21.6727V9.99724Z" fill="#212121"/>
</g>
</svg>
