<svg width="40" height="40" viewBox="0 0 40 40" fill="none" xmlns="http://www.w3.org/2000/svg">
<g id="Icono/Calendario/Default">
<path id="icon" fill-rule="evenodd" clip-rule="evenodd" d="M13.3333 10H9.99999V8.33333H6.66666V13.3333H33.3333V8.33333H30V10H26.6667V8.33333H13.3333V10ZM33.3333 16.6667H6.66666V33.3333H33.3333V16.6667ZM26.6667 5H13.3333V3.33333H9.99999V5H6.66666C4.82571 5 3.33333 6.49238 3.33333 8.33333V33.3333C3.33333 35.1743 4.82571 36.6667 6.66666 36.6667H33.3333C35.1743 36.6667 36.6667 35.1743 36.6667 33.3333V8.33333C36.6667 6.49238 35.1743 5 33.3333 5H30V3.33333H26.6667V5ZM15 23.3333H11.6667V20H15V23.3333ZM18.3333 23.3333H21.6667V20H18.3333V23.3333ZM28.3333 23.3333H25V20H28.3333V23.3333ZM11.6667 30H15V26.6667H11.6667V30ZM21.6667 30H18.3333V26.6667H21.6667V30Z" fill="#212121"/>
</g>
</svg>
