<svg width="40" height="40" viewBox="0 0 40 40" fill="none" xmlns="http://www.w3.org/2000/svg">
<path fill-rule="evenodd" clip-rule="evenodd" d="M9.99999 10H13.3333V8.3333H26.6667V10H30V8.3333H33.3333V13.3333H6.66666V8.3333H9.99999V10ZM6.66666 16.6667V33.3333H33.3333V16.6667H6.66666ZM13.3333 4.99999H26.6667V3.33333H30V4.99999H33.3333C35.1743 4.99999 36.6667 6.49238 36.6667 8.33333V33.3333C36.6667 35.1743 35.1743 36.6667 33.3333 36.6667H6.66666C4.82571 36.6667 3.33333 35.1743 3.33333 33.3333V8.33333C3.33333 6.49238 4.82571 4.99999 6.66666 4.99999H9.99999V3.33333H13.3333V4.99999ZM13.3333 26.6667V23.3333H18.3333V18.3333H21.6667V23.3333H26.6667V26.6667H21.6667V31.6667H18.3333V26.6667H13.3333Z" fill="#212121"/>
</svg>
