<svg width="41" height="40" viewBox="0 0 41 40" fill="none" xmlns="http://www.w3.org/2000/svg">
<path fill-rule="evenodd" clip-rule="evenodd" d="M31.095 34.83L34.7905 31.1345L33.489 26.4062L34.056 25.052L38.3351 22.6374V17.4115L34.0682 14.9869L33.5106 13.6351L34.8285 8.90433L31.1304 5.21163L26.4017 6.51276L25.0505 5.94623L22.6357 1.66674H17.4099L14.9852 5.93368L13.6337 6.49107L8.90372 5.17158L5.21142 8.86389L6.51277 13.5934L5.94624 14.9446L1.66675 17.3594V22.5837L5.92984 25.0138L6.48784 26.3668L5.17019 31.0967L8.86389 34.7904L13.5934 33.4891L14.9448 34.0557L17.3596 38.3334H22.5841L25.0124 34.0702L26.3651 33.5123L31.095 34.83ZM31.4225 22.7104L29.9695 26.1808L31.0618 30.149L30.1144 31.0964L26.1546 29.9933L22.6826 31.4252L20.6465 34.9999H19.3058L17.2865 31.4229L13.8199 29.9694L9.84957 31.0618L8.90379 30.1161L10.0069 26.1563L8.5751 22.6846L5.00023 20.6469V19.306L8.5789 17.2866L10.0325 13.8199L8.94 9.84956L9.88381 8.90576L13.8436 10.0104L17.3167 8.57798L19.3497 5.00023H20.6892L22.7085 8.57889L26.1752 10.0325L30.1463 8.93978L31.0945 9.88655L29.9916 13.8456L31.4239 17.3184L35.0016 19.3514V20.6908L31.4225 22.7104ZM20.0009 26.6679C16.3189 26.6679 13.334 23.683 13.334 20.0009C13.334 16.3189 16.3189 13.3339 20.0009 13.3339C23.683 13.3339 26.6679 16.3189 26.6679 20.0009C26.6679 23.683 23.683 26.6679 20.0009 26.6679ZM23.3344 20.0009C23.3344 21.842 21.842 23.3344 20.0009 23.3344C18.1599 23.3344 16.6674 21.842 16.6674 20.0009C16.6674 18.1599 18.1599 16.6674 20.0009 16.6674C21.842 16.6674 23.3344 18.1599 23.3344 20.0009Z" fill="#212121"/>
</svg>
