<svg width="33" height="32" viewBox="0 0 33 32" fill="none" xmlns="http://www.w3.org/2000/svg">
<path d="M25.9102 9.29688C26.2553 9.29688 26.5352 9.01706 26.5352 8.67188V1.875C26.5352 0.841125 25.694 0 24.6602 0H1.91016C0.876281 0 0.0351562 0.841125 0.0351562 1.875V30.125C0.0351562 31.1589 0.876281 32 1.91016 32H24.6602C25.694 32 26.5352 31.1589 26.5352 30.125V25.5205C26.5352 25.1753 26.2553 24.8955 25.9102 24.8955C25.565 24.8955 25.2852 25.1753 25.2852 25.5205V30.125C25.2852 30.4696 25.0048 30.75 24.6602 30.75H1.91016C1.56553 30.75 1.28516 30.4696 1.28516 30.125V1.875C1.28516 1.53038 1.56553 1.25 1.91016 1.25H24.6602C25.0048 1.25 25.2852 1.53038 25.2852 1.875V8.67188C25.2852 9.01706 25.565 9.29688 25.9102 9.29688Z" fill="#212121"/>
<path d="M13.2844 3.375C10.1139 3.375 7.53442 5.95444 7.53442 9.125C7.53442 10.7698 8.2288 12.2553 9.33955 13.3043C9.36036 13.3266 9.38249 13.3476 9.40667 13.3668C10.4299 14.303 11.7915 14.8749 13.2844 14.8749C14.7772 14.8749 16.1389 14.3029 17.1621 13.3668C17.1862 13.3476 17.2084 13.3265 17.2292 13.3043C18.3401 12.2553 19.0344 10.7698 19.0344 9.125C19.0344 5.95444 16.455 3.375 13.2844 3.375ZM13.2844 13.625C12.2639 13.625 11.322 13.283 10.5662 12.7083C11.1156 11.7342 12.1406 11.125 13.2844 11.125C14.4282 11.125 15.4533 11.7342 16.0026 12.7083C15.2468 13.283 14.305 13.625 13.2844 13.625ZM12.2844 8.875V8.46875C12.2844 7.91738 12.7331 7.46875 13.2844 7.46875C13.8358 7.46875 14.2844 7.91738 14.2844 8.46875V8.875C14.2844 9.42637 13.8358 9.875 13.2844 9.875C12.7331 9.875 12.2844 9.42637 12.2844 8.875ZM16.9057 11.7927C16.4447 11.1091 15.8059 10.5774 15.0642 10.2491C15.3586 9.86869 15.5344 9.39213 15.5344 8.875V8.46875C15.5344 7.22806 14.5251 6.21875 13.2844 6.21875C12.0437 6.21875 11.0344 7.22806 11.0344 8.46875V8.875C11.0344 9.39213 11.2102 9.86869 11.5046 10.2491C10.7629 10.5774 10.1241 11.1091 9.66317 11.7927C9.11136 11.0456 8.78442 10.1229 8.78442 9.125C8.78442 6.64369 10.8031 4.625 13.2844 4.625C15.7657 4.625 17.7844 6.64369 17.7844 9.125C17.7844 10.1229 17.4575 11.0456 16.9057 11.7927Z" fill="#212121"/>
<path d="M16.6594 27.375H13.2844C12.9393 27.375 12.6594 27.6548 12.6594 28C12.6594 28.3452 12.9393 28.625 13.2844 28.625H16.6594C17.0046 28.625 17.2844 28.3452 17.2844 28C17.2844 27.6548 17.0046 27.375 16.6594 27.375Z" fill="#212121"/>
<path d="M16.6594 23.875H7.78442C7.4393 23.875 7.15942 24.1548 7.15942 24.5C7.15942 24.8452 7.4393 25.125 7.78442 25.125H16.6594C17.0046 25.125 17.2844 24.8452 17.2844 24.5C17.2844 24.1548 17.0046 23.875 16.6594 23.875Z" fill="#212121"/>
<path d="M16.6594 20.375H7.78442C7.4393 20.375 7.15942 20.6548 7.15942 21C7.15942 21.3452 7.4393 21.625 7.78442 21.625H16.6594C17.0046 21.625 17.2844 21.3452 17.2844 21C17.2844 20.6548 17.0046 20.375 16.6594 20.375Z" fill="#212121"/>
<path d="M5.55694 17.0581C5.44075 16.9419 5.2795 16.875 5.1145 16.875C4.95006 16.875 4.78881 16.9419 4.67263 17.0581C4.55638 17.1744 4.4895 17.3356 4.4895 17.5C4.4895 17.6644 4.55631 17.8256 4.67263 17.9419C4.7895 18.0581 4.95006 18.125 5.1145 18.125C5.2795 18.125 5.44013 18.0581 5.55694 17.9419C5.67319 17.8256 5.74013 17.6644 5.74013 17.5C5.74013 17.3356 5.67325 17.1744 5.55694 17.0581Z" fill="#212121"/>
<path d="M5.55694 20.5581C5.44013 20.4419 5.2795 20.375 5.1145 20.375C4.95006 20.375 4.7895 20.4419 4.67263 20.5581C4.55638 20.6744 4.4895 20.8356 4.4895 21C4.4895 21.1644 4.55631 21.3256 4.67263 21.4419C4.7895 21.5581 4.95006 21.625 5.1145 21.625C5.2795 21.625 5.44013 21.5581 5.55694 21.4419C5.67319 21.3256 5.74013 21.1644 5.74013 21C5.74013 20.8356 5.67325 20.6744 5.55694 20.5581Z" fill="#212121"/>
<path d="M5.55694 24.0581C5.44013 23.9419 5.2795 23.875 5.1145 23.875C4.95006 23.875 4.7895 23.9419 4.67263 24.0581C4.55638 24.1744 4.4895 24.3356 4.4895 24.5C4.4895 24.6644 4.55631 24.8256 4.67263 24.9419C4.78881 25.0581 4.95006 25.125 5.1145 25.125C5.2795 25.125 5.44075 25.0581 5.55694 24.9419C5.67319 24.8256 5.74013 24.6644 5.74013 24.5C5.74013 24.3356 5.67325 24.1744 5.55694 24.0581Z" fill="#212121"/>
<path d="M16.6594 16.875H7.78442C7.4393 16.875 7.15942 17.1548 7.15942 17.5C7.15942 17.8452 7.4393 18.125 7.78442 18.125H16.6594C17.0046 18.125 17.2844 17.8452 17.2844 17.5C17.2844 17.1548 17.0046 16.875 16.6594 16.875Z" fill="#212121"/>
<path d="M30.7216 8.14504C30.1144 7.79448 29.407 7.70135 28.7297 7.88279C28.0524 8.06429 27.4863 8.49866 27.1358 9.10585L19.2707 22.7285C19.2276 22.8032 19.2003 22.886 19.1908 22.9717L18.6372 27.9307C18.6097 28.1775 18.7308 28.4172 18.9458 28.5413C19.0428 28.5973 19.1507 28.6251 19.2582 28.6251C19.389 28.6251 19.5192 28.5842 19.6289 28.5033L23.6467 25.5443C23.7161 25.4932 23.7742 25.4283 23.8173 25.3536L31.6823 11.7309C32.4061 10.4774 31.9751 8.86879 30.7216 8.14504ZM20.0379 26.6497L20.327 24.0602L22.1359 25.1045L20.0379 26.6497ZM23.0473 24.1873L20.6657 22.8123L26.9773 11.8804L29.3588 13.2554L23.0473 24.1873ZM30.5998 11.1058L29.9838 12.1729L27.6022 10.7979L28.2183 9.73085C28.4019 9.41279 28.6984 9.18529 29.0532 9.09022C29.408 8.9951 29.7785 9.04397 30.0965 9.2276C30.4146 9.41122 30.6421 9.70772 30.7372 10.0625C30.8322 10.4172 30.7835 10.7878 30.5998 11.1058Z" fill="#212121"/>
</svg>
