<svg width="40" height="40" viewBox="0 0 40 40" fill="none" xmlns="http://www.w3.org/2000/svg">
<g id="Icono/Documento">
<path id="icon" fill-rule="evenodd" clip-rule="evenodd" d="M3.33333 33.3333C3.33333 35.1743 4.82572 36.6667 6.66667 36.6667H29.0237L36.6667 29.0237V6.66666C36.6667 4.82571 35.1743 3.33333 33.3333 3.33333H6.66667C4.82572 3.33333 3.33333 4.82571 3.33333 6.66666V33.3333ZM6.66667 6.66666H33.3333V25H28.3333C26.4924 25 25 26.4924 25 28.3333V33.3333H6.66667V6.66666ZM28.3333 28.3333H32.643L28.3333 32.643V28.3333ZM11.6667 25V28.3333H21.6667V25H11.6667ZM11.6667 21.6667V18.3333H28.3333V21.6667H11.6667ZM11.6667 11.6667V15H28.3333V11.6667H11.6667Z" fill="black"/>
</g>
</svg>
