<svg width="40" height="40" viewBox="0 0 40 40" fill="none" xmlns="http://www.w3.org/2000/svg">
<g id="Icono/Adjunto">
<path id="icon" fill-rule="evenodd" clip-rule="evenodd" d="M16.6667 25V28.3333H10C5.39763 28.3333 1.66667 24.6024 1.66667 20C1.66667 15.3976 5.39763 11.6667 10 11.6667H16.6667V15H10C7.23858 15 5 17.2386 5 20C5 22.7614 7.23858 25 10 25H16.6667ZM23.3333 15V11.6667H30C34.6024 11.6667 38.3333 15.3976 38.3333 20C38.3333 24.6024 34.6024 28.3333 30 28.3333H23.3333V25H30C32.7614 25 35 22.7614 35 20C35 17.2386 32.7614 15 30 15H23.3333ZM11.6667 18.3333V21.6667H28.3333V18.3333H11.6667Z" fill="black"/>
</g>
</svg>
