<svg width="40" height="40" viewBox="0 0 40 40" fill="none" xmlns="http://www.w3.org/2000/svg">
<g id="Icono/Check/2">
<path id="icon" fill-rule="evenodd" clip-rule="evenodd" d="M20 38.3333C9.87478 38.3333 1.66667 30.1252 1.66667 20C1.66667 9.87478 9.87478 1.66666 20 1.66666C30.1252 1.66666 38.3333 9.87478 38.3333 20C38.3333 30.1252 30.1252 38.3333 20 38.3333ZM20 35C28.2843 35 35 28.2843 35 20C35 11.7157 28.2843 5 20 5C11.7157 5 5 11.7157 5 20C5 28.2843 11.7157 35 20 35ZM25.4882 13.8215L16.6667 22.643L12.8452 18.8215L10.4882 21.1785L16.6667 27.357L27.8452 16.1785L25.4882 13.8215Z" fill="#212121"/>
</g>
</svg>
