<svg width="24" height="24" viewBox="0 0 24 24" fill="none" xmlns="http://www.w3.org/2000/svg">
<path d="M6 16V18L2 18L2 16L6 16Z" fill="#212121"/>
<path fill-rule="evenodd" clip-rule="evenodd" d="M22 16H12V15C12 13.8954 11.1046 13 10 13H9C7.89543 13 7 13.8954 7 15V19C7 20.1046 7.89543 21 9 21H10C11.1046 21 12 20.1046 12 19V18H22V16ZM9 19H10L10 15H9V19Z" fill="#212121"/>
<path fill-rule="evenodd" clip-rule="evenodd" d="M22 6L17 6V5C17 3.89543 16.1046 3 15 3L14 3C12.8954 3 12 3.89543 12 5V9C12 10.1046 12.8954 11 14 11H15C16.1046 11 17 10.1046 17 9V8L22 8V6ZM15 9H14V5H15V9Z" fill="#212121"/>
<path d="M11 8V6L2 6L2 8L11 8Z" fill="#212121"/>
</svg>
