<svg width="40" height="40" viewBox="0 0 40 40" fill="none" xmlns="http://www.w3.org/2000/svg">
<path fill-rule="evenodd" clip-rule="evenodd" d="M34.5599 26.7778L31.4108 29.9269L28.0241 28.9834C28.322 28.0947 28.5331 27.1662 28.6471 26.208L30.5751 26.745L31.3824 25.9377L30.4516 22.5562L31.6899 19.5989L34.7398 17.8779V16.7365L31.691 15.0041L30.4705 12.0447L31.4103 8.67099L30.6023 7.8642L27.2183 8.79532L24.2641 7.55666L22.5434 4.50709H21.402L19.6695 7.55589L16.7099 8.77651L13.3355 7.8352L12.5313 8.63947L13.0875 10.6612C12.1296 10.776 11.2015 10.9878 10.3133 11.2863L9.35395 7.79975L12.5004 4.65334L16.531 5.77775L17.6827 5.30276L19.7489 1.66667H24.2022L26.2599 5.31346L27.4113 5.79623L31.441 4.68746L34.5923 7.83422L33.4693 11.8655L33.9444 13.0175L37.5804 15.0837V19.5369L33.934 21.5945L33.4508 22.7485L34.5599 26.7778ZM17.1025 14.1636C12.923 14.1636 10.1969 17.1948 10.1969 21.0693C10.1969 26.9863 13.2368 29.7013 17.1025 29.7013C20.9318 29.7013 24.0081 27.0765 24.0081 21.4146C24.0081 17.4811 21.2704 14.1636 17.1025 14.1636ZM17.1024 26.2485C15.0621 26.2485 13.6496 24.9869 13.6496 21.0693C13.6496 19.0249 14.9163 17.6165 17.1024 17.6165C19.2011 17.6165 20.5552 19.2573 20.5552 21.4146C20.5552 25.0373 19.1356 26.2485 17.1024 26.2485ZM6.18094 38.3333C5.15183 37.6086 4.19795 36.7843 3.33334 35.8743C3.85003 31.5052 9.08425 29.7013 17.1025 29.7013C25.1207 29.7013 30.3549 31.5052 30.8716 35.8743C30.007 36.7843 29.0531 37.6086 28.024 38.3333H27.4609V36.6069C27.4609 34.5388 23.7592 33.1541 17.1025 33.1541C10.4458 33.1541 6.74402 34.5388 6.74402 36.6069V38.3333H6.18094Z" fill="#212121"/>
</svg>
