<svg width="49" height="40" viewBox="0 0 49 40" fill="none" xmlns="http://www.w3.org/2000/svg">
<path fill-rule="evenodd" clip-rule="evenodd" d="M13.1934 6.32306C13.3508 6.10418 13.5257 5.83624 13.7487 5.47494C13.8301 5.34293 14.0523 4.97643 14.2177 4.70354L14.2188 4.70166C14.3066 4.55686 14.3782 4.43871 14.404 4.39647C16.2462 1.38308 17.5853 0 20 0H31.1111V4.44444H20C19.8073 4.44444 19.2011 5.07049 18.196 6.71464C18.1754 6.74831 18.1143 6.84911 18.0362 6.97805L18.0342 6.98129C17.8674 7.25648 17.6244 7.65743 17.5308 7.80909C17.2576 8.25182 17.0306 8.59973 16.8014 8.91835C15.8053 10.3031 14.8097 11.1111 13.3333 11.1111H6.66667C5.43937 11.1111 4.44444 12.106 4.44444 13.3333V33.3333C4.44444 34.5606 5.43937 35.5556 6.66667 35.5556H42.2222C43.4495 35.5556 44.4444 34.5606 44.4444 33.3333V20H48.8889V33.3333C48.8889 37.0152 45.9041 40 42.2222 40H6.66667C2.98477 40 0 37.0152 0 33.3333V13.3333C0 9.65144 2.98477 6.66667 6.66667 6.66667H12.9249C12.9989 6.58209 13.0896 6.4674 13.1934 6.32306ZM35.5556 11.111V6.66656H39.9998V2.22229H44.4443V6.66656H48.8889V11.111H44.4443V15.5556H39.9998V11.111H35.5556ZM24.4445 33.3334C18.308 33.3334 13.3334 28.3588 13.3334 22.2223C13.3334 16.0858 18.308 11.1111 24.4445 11.1111C30.581 11.1111 35.5557 16.0858 35.5557 22.2223C35.5557 28.3588 30.581 33.3334 24.4445 33.3334ZM24.4444 28.8891C28.1263 28.8891 31.111 25.9043 31.111 22.2224C31.111 18.5405 28.1263 15.5557 24.4444 15.5557C20.7625 15.5557 17.7777 18.5405 17.7777 22.2224C17.7777 25.9043 20.7625 28.8891 24.4444 28.8891Z" fill="black"/>
</svg>
