<svg width="40" height="40" viewBox="0 0 40 40" fill="none" xmlns="http://www.w3.org/2000/svg">
<g id="Icono/Redes/Instagram">
<g id="icon">
<path fill-rule="evenodd" clip-rule="evenodd" d="M20 28.3333C15.3976 28.3333 11.6667 24.6024 11.6667 20C11.6667 15.3976 15.3976 11.6667 20 11.6667C24.6024 11.6667 28.3333 15.3976 28.3333 20C28.3333 24.6024 24.6024 28.3333 20 28.3333ZM20 25C22.7614 25 25 22.7614 25 20C25 17.2386 22.7614 15 20 15C17.2386 15 15 17.2386 15 20C15 22.7614 17.2386 25 20 25Z" fill="#212121"/>
<path d="M30 11.6667C30 12.5871 29.2538 13.3333 28.3333 13.3333C27.4129 13.3333 26.6667 12.5871 26.6667 11.6667C26.6667 10.7462 27.4129 10 28.3333 10C29.2538 10 30 10.7462 30 11.6667Z" fill="#212121"/>
<path fill-rule="evenodd" clip-rule="evenodd" d="M26.6667 3.33334H13.3333C7.81048 3.33334 3.33333 7.81049 3.33333 13.3333V26.6667C3.33333 32.1895 7.81048 36.6667 13.3333 36.6667H26.6667C32.1895 36.6667 36.6667 32.1895 36.6667 26.6667V13.3333C36.6667 7.81049 32.1895 3.33334 26.6667 3.33334ZM6.66666 13.3333C6.66666 9.65144 9.65143 6.66667 13.3333 6.66667H26.6667C30.3486 6.66667 33.3333 9.65144 33.3333 13.3333V26.6667C33.3333 30.3486 30.3486 33.3333 26.6667 33.3333H13.3333C9.65143 33.3333 6.66666 30.3486 6.66666 26.6667V13.3333Z" fill="#212121"/>
</g>
</g>
</svg>
