<svg width="40" height="40" viewBox="0 0 40 40" fill="none" xmlns="http://www.w3.org/2000/svg">
<path fill-rule="evenodd" clip-rule="evenodd" d="M30 31.6667C34.6024 31.6667 38.3333 27.9357 38.3333 23.3333C38.3333 19.1416 35.2384 15.6727 31.2091 15.0871C29.7917 10.176 25.2644 6.66667 20 6.66667C16.0891 6.66667 12.515 8.60846 10.3665 11.7505C5.44505 12.3891 1.66667 16.598 1.66667 21.6667C1.66667 27.1895 6.14382 31.6667 11.6667 31.6667H30ZM35 23.3333C35 26.0948 32.7614 28.3333 30 28.3333H11.6667C7.98477 28.3333 5 25.3486 5 21.6667C5 18.0841 7.83224 15.1453 11.3994 15.0052L12.3178 14.9692L12.7774 14.1733C14.2572 11.6107 16.9873 10 20 10C24.0852 10 27.5506 12.9604 28.2182 16.9436L28.4563 18.3636L29.8958 18.3344C29.9478 18.3335 29.9478 18.3335 30 18.3333C32.7614 18.3333 35 20.5719 35 23.3333Z" fill="#212121"/>
</svg>
