<svg width="40" height="40" viewBox="0 0 40 40" fill="none" xmlns="http://www.w3.org/2000/svg">
<path fill-rule="evenodd" clip-rule="evenodd" d="M20.3117 6.66666C24.8576 6.66666 29.2045 9.05104 33.2555 12.9686C34.6376 14.3051 35.8879 15.7319 36.9885 17.1594C37.6527 18.0207 38.1243 18.6983 38.3824 19.102L38.9568 20L38.3824 20.898C38.1243 21.3017 37.6527 21.9793 36.9885 22.8406C35.8879 24.2681 34.6376 25.6949 33.2555 27.0314C29.2045 30.949 24.8576 33.3333 20.3117 33.3333C15.7658 33.3333 11.4189 30.949 7.36791 27.0314C5.98587 25.6949 4.73557 24.2681 3.6349 22.8406C2.97073 21.9793 2.49918 21.3017 2.241 20.898L1.66666 20L2.241 19.102C2.49918 18.6983 2.97073 18.0207 3.6349 17.1594C4.73557 15.7319 5.98587 14.3051 7.36791 12.9686C11.4189 9.05104 15.7658 6.66666 20.3117 6.66666ZM34.3488 19.1948C33.3411 17.8879 32.1953 16.5803 30.9383 15.3647C27.4492 11.9906 23.8202 10 20.3117 10C16.8033 10 13.1742 11.9906 9.68512 15.3647C8.42812 16.5803 7.28237 17.8879 6.27463 19.1948C6.05699 19.4771 5.85587 19.7464 5.672 20C5.85587 20.2536 6.05699 20.5229 6.27463 20.8052C7.28237 22.1121 8.42812 23.4197 9.68512 24.6352C13.1742 28.0094 16.8033 30 20.3117 30C23.8202 30 27.4492 28.0094 30.9383 24.6352C32.1953 23.4197 33.3411 22.1121 34.3488 20.8052C34.5665 20.5229 34.7676 20.2536 34.9514 20C34.7676 19.7464 34.5665 19.4771 34.3488 19.1948ZM13.6451 20C13.6451 23.6819 16.6298 26.6667 20.3117 26.6667C23.9936 26.6667 26.9784 23.6819 26.9784 20C26.9784 16.3181 23.9936 13.3333 20.3117 13.3333C16.6298 13.3333 13.6451 16.3181 13.6451 20ZM23.6451 20C23.6451 21.8409 22.1527 23.3333 20.3117 23.3333C18.4708 23.3333 16.9784 21.8409 16.9784 20C16.9784 18.159 18.4708 16.6667 20.3117 16.6667C22.1527 16.6667 23.6451 18.159 23.6451 20Z" fill="#212121"/>
</svg>
