<svg width="40" height="40" viewBox="0 0 40 40" fill="none" xmlns="http://www.w3.org/2000/svg">
<path fill-rule="evenodd" clip-rule="evenodd" d="M4.82357 1.66666L2.46655 4.02369L9.24125 10.7984C8.61015 11.3214 7.98559 11.8831 7.36791 12.4804C5.98588 13.8169 4.73557 15.2438 3.63491 16.6712C2.97074 17.5326 2.49918 18.2102 2.241 18.6138L1.66667 19.5118L2.241 20.4098C2.49918 20.8135 2.97074 21.4911 3.63491 22.3525C4.73557 23.7799 5.98588 25.2068 7.36791 26.5433C11.4189 30.4608 15.7658 32.8452 20.3117 32.8452C23.1799 32.8452 25.9689 31.896 28.6543 30.2114L35.7999 37.357L38.1569 35L4.82357 1.66666ZM26.2194 27.7766L23.6983 25.2555C22.7058 25.842 21.5481 26.1785 20.3117 26.1785C16.6298 26.1785 13.6451 23.1937 13.6451 19.5118C13.6451 18.2755 13.9816 17.1178 14.5681 16.1252L11.6113 13.1684C10.9656 13.6891 10.323 14.2597 9.68513 14.8766C8.42812 16.0922 7.28237 17.3997 6.27464 18.7066C6.05699 18.9889 5.85587 19.2582 5.672 19.5118C5.85587 19.7655 6.05699 20.0348 6.27464 20.317C7.28237 21.624 8.42812 22.9315 9.68513 24.1471C13.1742 27.5212 16.8033 29.5118 20.3117 29.5118C22.2587 29.5118 24.2428 28.8988 26.2194 27.7766ZM17.0913 18.6484C17.0177 18.9238 16.9784 19.2132 16.9784 19.5118C16.9784 21.3528 18.4708 22.8452 20.3117 22.8452C20.6103 22.8452 20.8998 22.8059 21.1751 22.7323L17.0913 18.6484ZM33.8085 25.9968L31.4514 23.6397C32.5084 22.5713 33.4799 21.4439 34.3488 20.317C34.5665 20.0348 34.7676 19.7655 34.9514 19.5118C34.7676 19.2582 34.5665 18.9889 34.3488 18.7066C33.3411 17.3997 32.1953 16.0922 30.9383 14.8766C27.4492 11.5025 23.8202 9.51184 20.3117 9.51184C19.4412 9.51184 18.5633 9.63439 17.6819 9.8702L15.0453 7.23358C16.7661 6.54747 18.5235 6.17851 20.3117 6.17851C24.8576 6.17851 29.2045 8.56288 33.2555 12.4804C34.6376 13.8169 35.8879 15.2438 36.9885 16.6712C37.6527 17.5326 38.1243 18.2102 38.3825 18.6138L38.9568 19.5118L38.3825 20.4098C38.1243 20.8135 37.6527 21.4911 36.9885 22.3525C36.0366 23.587 34.9727 24.8212 33.8085 25.9968Z" fill="#212121"/>
</svg>
