<svg width="40" height="40" viewBox="0 0 40 40" fill="none" xmlns="http://www.w3.org/2000/svg">
<path fill-rule="evenodd" clip-rule="evenodd" d="M33.6364 5H6.36363C4.69004 5 3.33333 6.49238 3.33333 8.33333V11.6667C3.33333 13.5076 4.69004 15 6.36363 15H33.6364C35.3099 15 36.6667 13.5076 36.6667 11.6667V8.33333C36.6667 6.49238 35.3099 5 33.6364 5ZM6.36363 18.3333H33.6364C35.3099 18.3333 36.6667 19.8257 36.6667 21.6667V25C36.6667 26.8409 35.3099 28.3333 33.6364 28.3333H6.36363C4.69004 28.3333 3.33333 26.8409 3.33333 25V21.6667C3.33333 19.8257 4.69004 18.3333 6.36363 18.3333ZM6.66666 21.6667V25H33.3333V21.6667H6.66666ZM6.66666 8.33333V11.6667H33.3333V8.33333H6.66666ZM23.3333 31.6667H3.33333V35H23.3333V31.6667Z" fill="#212121"/>
</svg>
