<svg width="40" height="40" viewBox="0 0 40 40" fill="none" xmlns="http://www.w3.org/2000/svg">
<g id="Icono/Pregunta">
<path id="icon" fill-rule="evenodd" clip-rule="evenodd" d="M1.66667 20C1.66667 30.1252 9.87478 38.3333 20 38.3333C30.1252 38.3333 38.3333 30.1252 38.3333 20C38.3333 9.87478 30.1252 1.66667 20 1.66667C9.87478 1.66667 1.66667 9.87478 1.66667 20ZM35 20C35 28.2843 28.2843 35 20 35C11.7157 35 5.00001 28.2843 5.00001 20C5.00001 11.7157 11.7157 5 20 5C28.2843 5 35 11.7157 35 20ZM20.0006 28.3306C20.9213 28.3306 21.6678 27.5844 21.6678 26.6639C21.6678 25.7434 20.9213 24.9972 20.0006 24.9972C19.0798 24.9972 18.3333 25.7434 18.3333 26.6639C18.3333 27.5844 19.0798 28.3306 20.0006 28.3306ZM18.3333 23.3333H21.6667C21.6667 22.0027 21.8757 21.7589 23.2454 21.074C25.6257 19.8839 26.6667 18.6694 26.6667 15.8333C26.6667 12.201 23.8072 10 20 10C16.3181 10 13.3333 12.9848 13.3333 16.6667H16.6667C16.6667 14.8257 18.1591 13.3333 20 13.3333C22.1286 13.3333 23.3333 14.2607 23.3333 15.8333C23.3333 17.1639 23.1243 17.4078 21.7547 18.0926C19.3743 19.2828 18.3333 20.4973 18.3333 23.3333Z" fill="#212121"/>
</g>
</svg>
