<svg width="41" height="40" viewBox="0 0 41 40" fill="none" xmlns="http://www.w3.org/2000/svg">
<path d="M13.3333 29.1667L11.4157 28.5985L9.72153 34.3164L14.5206 30.7761L13.3333 29.1667ZM26.3241 19.5833L27.5114 21.1928L29.6931 19.5833L27.5114 17.9739L26.3241 19.5833ZM13.3333 10L14.5206 8.39055L9.72153 4.85023L11.4157 10.5682L13.3333 10ZM16.1728 19.5833L18.0904 20.1515L18.2588 19.5833L18.0904 19.0152L16.1728 19.5833ZM14.5206 30.7761L27.5114 21.1928L25.1368 17.9739L12.146 27.5572L14.5206 30.7761ZM27.5114 17.9739L14.5206 8.39055L12.146 11.6094L25.1368 21.1928L27.5114 17.9739ZM11.4157 10.5682L14.2552 20.1515L18.0904 19.0152L15.2509 9.43182L11.4157 10.5682ZM14.2552 19.0152L11.4157 28.5985L15.2509 29.7348L18.0904 20.1515L14.2552 19.0152Z" fill="black" mask="url(#path-1-outside-1)"/>
</svg>
