<svg width="24" height="24" viewBox="0 0 24 24" fill="none" xmlns="http://www.w3.org/2000/svg">
<path d="M21.0735 5.83247C18.8289 5.83247 17.0028 3.95377 17.0028 1.64453C17.0028 1.28853 16.7222 1 16.3763 1H13.021C12.675 1 12.3945 1.28853 12.3945 1.64453V15.797C12.3945 17.1546 11.321 18.259 10.0013 18.259C8.68179 18.259 7.60827 17.1546 7.60827 15.797C7.60827 14.4393 8.68179 13.3349 10.0013 13.3349C10.3474 13.3349 10.6278 13.0464 10.6278 12.6904V9.23842C10.6278 8.88258 10.3474 8.59389 10.0013 8.59389C6.14076 8.59389 3 11.8253 3 15.797C3 19.7688 6.14076 23 10.0013 23C13.8619 23 17.0028 19.7688 17.0028 15.797V9.53249C18.2498 10.2165 19.6372 10.5735 21.0735 10.5735C21.4195 10.5735 21.7 10.2849 21.7 9.92894V6.47701C21.7 6.12117 21.4195 5.83247 21.0735 5.83247ZM20.447 9.25772C19.1095 9.14325 17.8394 8.66254 16.7421 7.85049C16.5514 7.70917 16.2998 7.6897 16.0905 7.80014C15.8813 7.91025 15.7498 8.13181 15.7498 8.37367V15.797C15.7498 19.058 13.171 21.7109 10.0013 21.7109C6.83169 21.7109 4.25298 19.058 4.25298 15.797C4.25298 12.7538 6.49887 10.24 9.37484 9.91786V12.1012C7.66179 12.4077 6.3553 13.9482 6.3553 15.797C6.3553 17.8654 7.99085 19.5482 10.0013 19.5482C12.012 19.5482 13.6475 17.8654 13.6475 15.797V2.28906H15.7864C16.0734 4.79501 18.0112 6.7887 20.447 7.08394V9.25772Z" fill="#212121" stroke="#212121" stroke-width="0.5"/>
</svg>
