<svg width="24" height="24" viewBox="0 0 24 24" fill="none" xmlns="http://www.w3.org/2000/svg">
<path fill-rule="evenodd" clip-rule="evenodd" d="M4.79285 1.29291L6.20706 2.70712L2.70706 6.20712L1.29285 4.79291L4.79285 1.29291ZM22.7071 4.79291L19.2071 1.29291L17.7928 2.70712L21.2928 6.20712L22.7071 4.79291ZM12 22C6.47711 22 1.99995 17.5229 1.99995 12C1.99995 6.47717 6.47711 2.00001 12 2.00001C17.5228 2.00001 22 6.47717 22 12C22 17.5229 17.5228 22 12 22ZM12 20C16.4182 20 20 16.4183 20 12C20 7.58174 16.4182 4.00001 12 4.00001C7.58168 4.00001 3.99995 7.58174 3.99995 12C3.99995 16.4183 7.58168 20 12 20ZM15.2928 8.29291L11 12.5858L8.70706 10.2929L7.29285 11.7071L11 15.4142L16.7071 9.70712L15.2928 8.29291Z" fill="black"/>
</svg>
