<svg width="24" height="24" viewBox="0 0 24 24" fill="none" xmlns="http://www.w3.org/2000/svg">
<path fill-rule="evenodd" clip-rule="evenodd" d="M6.20706 2.70712L4.79285 1.29291L1.29285 4.79291L2.70706 6.20712L6.20706 2.70712ZM19.2071 1.29291L22.7071 4.79291L21.2928 6.20712L17.7928 2.70712L19.2071 1.29291ZM1.99995 12C1.99995 17.5229 6.47711 22 12 22C17.5228 22 22 17.5229 22 12C22 6.47717 17.5228 2.00001 12 2.00001C6.47711 2.00001 1.99995 6.47717 1.99995 12ZM20 12C20 16.4183 16.4182 20 12 20C7.58168 20 3.99995 16.4183 3.99995 12C3.99995 7.58174 7.58168 4.00001 12 4.00001C16.4182 4.00001 20 7.58174 20 12ZM11 13H7.99995V11H11V8.00001H13V11H16V13H13V16H11V13Z" fill="black"/>
</svg>
