<svg width="24" height="24" viewBox="0 0 24 24" fill="none" xmlns="http://www.w3.org/2000/svg">
<path fill-rule="evenodd" clip-rule="evenodd" d="M2.33574 3.75001L1.29285 4.79291L2.70706 6.20712L3.74995 5.16423L4.25701 5.67128C2.84632 7.39515 1.99995 9.59874 1.99995 12C1.99995 17.5229 6.47711 22 12 22C14.4012 22 16.6048 21.1537 18.3287 19.743L21.2928 22.7071L22.7071 21.2929L2.70706 1.29291L1.29285 2.70712L2.33574 3.75001ZM16.9056 18.3199L5.6801 7.09437C4.62704 8.44905 3.99995 10.1513 3.99995 12C3.99995 16.4183 7.58168 20 12 20C13.8487 20 15.5509 19.3729 16.9056 18.3199ZM20 12C20 13.1162 19.7713 14.1791 19.3584 15.1442L20.8584 16.6442C21.5874 15.2565 22 13.6764 22 12C22 6.47717 17.5228 2.00001 12 2.00001C10.3235 2.00001 8.74348 2.41253 7.35573 3.14158L8.85572 4.64157C9.8209 4.22862 10.8837 4.00001 12 4.00001C16.4182 4.00001 20 7.58174 20 12ZM19.2071 1.29291L22.7071 4.79291L21.2928 6.20712L17.7928 2.70712L19.2071 1.29291Z" fill="black"/>
</svg>
