<svg width="24" height="24" viewBox="0 0 24 24" fill="none" xmlns="http://www.w3.org/2000/svg">
<path fill-rule="evenodd" clip-rule="evenodd" d="M17.5858 7.99992L17.0093 7.99991C14.9891 8.01872 14.1695 8.88229 12.849 11.7638C12.7006 12.0884 12.6217 12.2608 12.5478 12.4205C10.7759 16.2488 8.96371 17.9389 5 18H3V16L4.98456 16.0001C7.99779 15.9536 9.24866 14.787 10.7328 11.5804C10.8046 11.4253 10.8813 11.2575 11.0308 10.9306C12.6438 7.41088 13.9561 6.02825 17 5.99995H17.5858L16.2929 4.70706L17.7071 3.29285L21.4142 6.99995L17.7071 10.7071L16.2929 9.29285L17.5858 7.99992ZM17.5858 18H17C15.067 17.982 13.8323 17.4179 12.7755 16.1071C13.1678 15.543 13.5362 14.9169 13.8909 14.2284C14.7313 15.5397 15.5624 15.9865 17.0093 16L17.5858 16L16.2929 14.7071L17.7071 13.2928L21.4142 17L17.7071 20.7071L16.2929 19.2928L17.5858 18ZM4.98456 7.99983C7.02213 8.03129 8.25385 8.57489 9.29676 9.9151C9.62455 9.21035 9.95039 8.57236 10.2864 7.99914C8.998 6.66595 7.39018 6.03678 5 5.99995H3V7.99995L4.98456 7.99983Z" fill="black"/>
</svg>
