<svg width="24" height="24" viewBox="0 0 24 24" fill="none" xmlns="http://www.w3.org/2000/svg">
<path fill-rule="evenodd" clip-rule="evenodd" d="M2.41421 1.29291L1 2.70712L7 8.70712V10H6C4.93165 10 4 10.7764 4 11.8333V20.1667C4 21.2236 4.93165 22 6 22H18C18.6301 22 19.2126 21.73 19.5845 21.2916L21 22.7071L22.4142 21.2929L2.41421 1.29291ZM18 19.7071L10.2929 12H6V20H18V19.7071ZM18 14.0787L20 16.0787V11.8333C20 10.7764 19.0684 10 18 10H17V7.00001C17 4.23859 14.7614 2.00001 12 2.00001C10.3441 2.00001 8.87619 2.80498 7.96627 4.04496L9.40869 5.48739C9.92918 4.59765 10.8948 4.00001 12 4.00001C13.6569 4.00001 15 5.34316 15 7.00001V10H13.9213L15.9213 12H18V14.0787ZM12 17C11.4477 17 11 16.5523 11 16C11 15.4477 11.4477 15 12 15C12.5523 15 13 15.4477 13 16C13 16.5523 12.5523 17 12 17Z" fill="black"/>
</svg>
