<svg width="24" height="24" viewBox="0 0 24 24" fill="none" xmlns="http://www.w3.org/2000/svg">
<path fill-rule="evenodd" clip-rule="evenodd" d="M20.946 2L21.9398 19.8891C22.0011 20.9919 21.1567 21.9357 20.0538 21.9969C20.0261 21.9982 20.0122 21.9988 19.9984 21.9992C19.9845 21.9996 19.9706 21.9997 19.9429 22H4.05707C2.9525 22 2.05707 21.1046 2.05707 20C2.05758 19.9445 2.05758 19.9445 2.06015 19.8891L3.05398 2H20.946ZM4.94596 4L4.05707 20H19.9429L19.054 4H4.94596ZM8.99997 6H6.99997V8.5C6.99997 10.9007 9.32321 13 12 13C14.6767 13 17 10.9007 17 8.5V6H15V8.5C15 9.74837 13.6148 11 12 11C10.3851 11 8.99997 9.74837 8.99997 8.5V6Z" fill="black"/>
</svg>
