<svg width="24" height="24" viewBox="0 0 24 24" fill="none" xmlns="http://www.w3.org/2000/svg">
<path fill-rule="evenodd" clip-rule="evenodd" d="M2.70711 1.29289L1.29289 2.70711L4.58579 6H4C2.34315 6 1 7.34314 1 9V18C1 19.6569 2.34315 21 4 21H19.5858L21.2929 22.7071L22.7071 21.2929L2.70711 1.29289ZM17.5858 19L15.3226 16.7368C14.4216 17.5387 13.2484 18 12 18C9.23858 18 7 15.7614 7 13C7 11.7509 7.46197 10.5777 8.2632 9.67741L6.58579 8H4C3.44772 8 3 8.44771 3 9V18C3 18.5523 3.44772 19 4 19H17.5858ZM9.6814 11.0956C9.24743 11.623 9 12.2904 9 13C9 14.6569 10.3431 16 12 16C12.7093 16 13.3766 15.7529 13.9044 15.3186L9.6814 11.0956ZM20 6C21.6569 6 23 7.34314 23 9V18H21V9C21 8.44771 20.5523 8 20 8H17C16.3357 8 15.8876 7.63641 15.4394 7.01325C15.3363 6.86988 15.2341 6.71332 15.1111 6.51409C15.069 6.44587 14.9597 6.26553 14.8847 6.1417L14.8846 6.14154L14.8118 6.02159C14.3595 5.28172 14.0867 5 14 5H10C10.0301 5 10.02 5.00936 9.95302 5.07174C9.93406 5.08939 9.91053 5.1113 9.88207 5.13844C9.81348 5.20384 9.51009 5.51489 9.52688 5.49797C9.52013 5.50476 8.09622 4.10029 8.09622 4.10029C8.06517 4.1316 8.40245 3.78581 8.50189 3.69099C8.96794 3.24661 9.40746 3 10 3H14C15.0866 3 15.6892 3.62239 16.5182 4.97841L16.6021 5.11667L16.6023 5.11707L16.6035 5.11896C16.6778 5.24151 16.7767 5.4047 16.8131 5.46372C16.9134 5.6263 16.9921 5.74688 17.063 5.84537C17.1097 5.91033 17.1505 5.96194 17.1838 6H20ZM19 11C19.5523 11 20 10.5523 20 10C20 9.44771 19.5523 9 19 9C18.4477 9 18 9.44771 18 10C18 10.5523 18.4477 11 19 11Z" fill="black"/>
</svg>
