<svg width="24" height="24" viewBox="0 0 24 24" fill="none" xmlns="http://www.w3.org/2000/svg">
<path fill-rule="evenodd" clip-rule="evenodd" d="M19 14.7799V9.99619C19 5.93873 16.7616 3.1226 13.8653 2.27717C13.7605 2.00593 13.5947 1.75378 13.3694 1.5422C12.5997 0.819267 11.4002 0.819267 10.6305 1.5422C10.4057 1.75332 10.2402 2.00483 10.1353 2.27538C9.26826 2.52704 8.46066 2.95463 7.75444 3.53919L9.17632 4.96047C9.99116 4.33972 10.9706 4.01111 12 4.01111C14.6597 4.01111 17 6.22907 17 9.99619C17 11.1799 17.1025 12.1973 17.3031 13.0839L19 14.7799ZM14.0878 22.4135C15.0074 21.8525 15.6241 20.9904 15.8743 20.006H18.5918L21.2928 22.7071L22.7071 21.2929L2.70706 1.29289L1.29285 2.70711L5.48726 6.90152C5.17374 7.82494 4.99995 8.86162 4.99995 9.99619C4.99995 12.629 4.46894 14.1042 3.48591 15.1733C3.32156 15.3521 2.87626 15.7615 2.57462 16.0389C2.4319 16.1701 2.32135 16.2718 2.28792 16.3055L1.99995 16.5974V20.006L8.08793 20.006C8.29379 21.0676 8.87005 21.7779 9.91215 22.4135C11.1941 23.1955 12.8058 23.1955 14.0878 22.4135ZM7.12509 8.53935L16.5926 18.0069H3.99995V17.4454C4.29603 17.1742 4.74839 16.7546 4.95844 16.5261C6.29418 15.0734 6.99995 13.1127 6.99995 9.99619C6.99995 9.48079 7.04336 8.99464 7.12509 8.53935ZM10.1786 20.006H13.7367C13.5757 20.2856 13.3433 20.5256 13.0459 20.707C12.4037 21.0988 11.5962 21.0988 10.954 20.707C10.5607 20.4671 10.3199 20.2687 10.1786 20.006Z" fill="black"/>
</svg>
