<svg width="24" height="24" viewBox="0 0 24 24" fill="none" xmlns="http://www.w3.org/2000/svg">
<path fill-rule="evenodd" clip-rule="evenodd" d="M1 12C1 18.0751 5.92487 23 12 23C18.0751 23 23 18.0751 23 12C23 5.92487 18.0751 1 12 1C5.92487 1 1 5.92487 1 12ZM21 12C21 16.9706 16.9706 21 12 21C7.02944 21 3 16.9706 3 12C3 7.02944 7.02944 3 12 3C16.9706 3 21 7.02944 21 12ZM15.2929 11.2929L16.7071 12.7071L12 17.4142L7.29289 12.7071L8.70711 11.2929L12 14.5858L15.2929 11.2929ZM15.2929 7.29289L12 10.5858L8.70711 7.29289L7.29289 8.70711L12 13.4142L16.7071 8.70711L15.2929 7.29289Z" fill="black"/>
</svg>
