<svg width="24" height="24" viewBox="0 0 24 24" fill="none" xmlns="http://www.w3.org/2000/svg">
<path fill-rule="evenodd" clip-rule="evenodd" d="M1 12C1 18.0751 5.92487 23 12 23C18.0751 23 23 18.0751 23 12C23 5.92487 18.0751 1 12 1C5.92487 1 1 5.92487 1 12ZM21 12C21 16.9706 16.9706 21 12 21C7.02944 21 3 16.9706 3 12C3 7.02944 7.02944 3 12 3C16.9706 3 21 7.02944 21 12ZM11.2929 8.70711L12.7071 7.29289L17.4142 12L12.7071 16.7071L11.2929 15.2929L14.5858 12L11.2929 8.70711ZM8.70711 7.29289L7.29289 8.70711L10.5858 12L7.29289 15.2929L8.70711 16.7071L13.4142 12L8.70711 7.29289Z" fill="black"/>
</svg>
