<svg width="24" height="24" viewBox="0 0 24 24" fill="none" xmlns="http://www.w3.org/2000/svg">
<path fill-rule="evenodd" clip-rule="evenodd" d="M1 12C1 18.0751 5.92487 23 12 23C18.0751 23 23 18.0751 23 12C23 5.92487 18.0751 1 12 1C5.92487 1 1 5.92487 1 12ZM21 12C21 16.9706 16.9706 21 12 21C7.02944 21 3 16.9706 3 12C3 7.02944 7.02944 3 12 3C16.9706 3 21 7.02944 21 12ZM8.70711 16.7071L7.29289 15.2929L12 10.5858L16.7071 15.2929L15.2929 16.7071L12 13.4142L8.70711 16.7071ZM12 6.58579L7.29289 11.2929L8.70711 12.7071L12 9.41421L15.2929 12.7071L16.7071 11.2929L12 6.58579Z" fill="black"/>
</svg>
