<svg width="24" height="24" viewBox="0 0 24 24" fill="none" xmlns="http://www.w3.org/2000/svg">
<path fill-rule="evenodd" clip-rule="evenodd" d="M1.29289 2.70711L5.60144 7.01565C3.02635 7.21874 1 9.37273 1 12C1 14.7614 3.23858 17 6 17H10V15H6C4.34315 15 3 13.6569 3 12C3 10.3431 4.34315 9 6 9H7.58579L9.58579 11H7V13H11.5858L21.2929 22.7071L22.7071 21.2929L2.70711 1.29289L1.29289 2.70711ZM19.032 14.8178L20.5286 16.3144C22.0073 15.4459 23 13.8389 23 12C23 9.23857 20.7614 7 18 7H14V9H18C19.6569 9 21 10.3431 21 12C21 13.2942 20.1804 14.397 19.032 14.8178Z" fill="black"/>
</svg>
