<svg width="24" height="24" viewBox="0 0 24 24" fill="none" xmlns="http://www.w3.org/2000/svg">
<path fill-rule="evenodd" clip-rule="evenodd" d="M12 1C9.90878 1 7.8307 1.70053 6.48756 2.27339L8.00927 3.7951C9.21595 3.36779 10.7212 3 12 3C14.2601 3 16.4143 3.67992 17.8906 4.6641C18.1273 4.82194 18.5488 5.0834 18.8721 5.284C18.9204 5.31397 18.9665 5.34258 19.0095 5.36928C19.0117 5.96182 19.0127 7.87764 19.009 10.1098C19.0081 10.6273 19.0071 11.1695 19.0058 11.8014L19.0018 13.7547C19.0009 14.2193 19.0003 14.5513 19.0001 14.7859L20.6926 16.4784C20.8975 15.9856 21 15.4928 21 15C21 14.6186 21.0017 13.8033 21.0038 12.7947C21.01 9.83711 21.0197 5.21723 21 5C21 4.23241 20.7054 4.05401 19.89 3.56029C19.6432 3.4108 19.3486 3.23241 19 3C17.5 2 14.9952 1 12 1ZM3.07042 4.48468L1.29285 2.70711L2.70706 1.29289L22.7071 21.2929L21.2928 22.7071L18.1151 19.5293C16.6413 20.6862 14.603 21.8431 12 23C5.99995 20.3271 2.99995 17.6604 2.99995 15V5C2.99995 4.79045 3.02191 4.62481 3.07042 4.48468ZM16.6942 18.1085L4.99995 6.41421V15C4.99995 16.5085 7.22906 18.5687 12.0009 20.802C14.0073 19.865 15.5639 18.9578 16.6942 18.1085Z" fill="black"/>
</svg>
