<svg width="24" height="24" viewBox="0 0 24 24" fill="none" xmlns="http://www.w3.org/2000/svg">
<path fill-rule="evenodd" clip-rule="evenodd" d="M3 19H16.4142L12.2607 14.8465C13.1642 13.448 13.9392 13 15.5 13C16.3848 13 17.2926 13.3158 18.1634 13.8517C18.4769 14.0446 18.7619 14.2518 19.0109 14.4579C19.1554 14.5775 19.2516 14.6659 19.2929 14.7071L21 16.4142V14C21 10.1786 16.8865 7 13 7C10.8893 7 9.52536 7.45464 8.15308 8.55246C7.79109 8.84206 7.49463 9.10851 7.00303 9.58882L3 5.58579V19ZM5 17V10.4142L7 12.4142L7.70711 11.7071C8.62352 10.7907 8.97349 10.4574 9.40247 10.1142C10.4111 9.30726 11.3329 9 13 9C14.9224 9 16.9534 10.0761 18.0904 11.5619C17.2596 11.2038 16.3926 11 15.5 11C12.883 11 11.5459 12.0291 10.1318 14.5039L9.75281 15.167L11.5858 17H5Z" fill="black"/>
</svg>
