<svg width="24" height="24" viewBox="0 0 24 24" fill="none" xmlns="http://www.w3.org/2000/svg">
<path fill-rule="evenodd" clip-rule="evenodd" d="M12 23C5.92487 23 1 18.0751 1 12C1 5.92487 5.92487 1 12 1C18.0751 1 23 5.92487 23 12C23 18.0751 18.0751 23 12 23ZM12 21C16.9706 21 21 16.9706 21 12C21 7.02944 16.9706 3 12 3C7.02944 3 3 7.02944 3 12C3 16.9706 7.02944 21 12 21ZM12.2929 6.70711L14.5858 9H10C7.79086 9 6 10.7909 6 13C6 15.2091 7.79086 17 10 17V15C8.89543 15 8 14.1046 8 13C8 11.8954 8.89543 11 10 11H14.5858L12.2929 13.2929L13.7071 14.7071L18.4142 10L13.7071 5.29289L12.2929 6.70711Z" fill="black"/>
</svg>
