<svg width="24" height="24" viewBox="0 0 24 24" fill="none" xmlns="http://www.w3.org/2000/svg">
<path fill-rule="evenodd" clip-rule="evenodd" d="M21 19V5.58579L16.997 9.58882C16.5054 9.10851 16.2089 8.84206 15.8469 8.55246C14.4746 7.45464 13.1107 7 11 7C7.1135 7 3 10.1786 3 14V16.4142L4.70711 14.7071C4.74835 14.6659 4.84457 14.5775 4.98913 14.4579C5.23811 14.2518 5.52307 14.0446 5.8366 13.8517C6.70743 13.3158 7.61525 13 8.5 13C10.0608 13 10.8358 13.448 11.7393 14.8465L7.58579 19H21ZM16.2929 11.7071L17 12.4142L19 10.4142V17H12.4142L14.2472 15.167L13.8682 14.5039C12.4541 12.0291 11.117 11 8.5 11C7.60743 11 6.74036 11.2038 5.90962 11.5619C7.0466 10.0761 9.07763 9 11 9C12.6671 9 13.5889 9.30726 14.5975 10.1142C15.0265 10.4574 15.3765 10.7907 16.2929 11.7071Z" fill="black"/>
</svg>
