<svg width="24" height="24" viewBox="0 0 24 24" fill="none" xmlns="http://www.w3.org/2000/svg">
<path fill-rule="evenodd" clip-rule="evenodd" d="M12 23C5.92487 23 1 18.0751 1 12C1 5.92487 5.92487 1 12 1C18.0751 1 23 5.92487 23 12C23 18.0751 18.0751 23 12 23ZM12 21C16.9706 21 21 16.9706 21 12C21 7.02944 16.9706 3 12 3C7.02944 3 3 7.02944 3 12C3 16.9706 7.02944 21 12 21ZM11.7071 13.2929L9.41421 11H14C15.1046 11 16 11.8954 16 13C16 14.1046 15.1046 15 14 15V17C16.2091 17 18 15.2091 18 13C18 10.7909 16.2091 9 14 9H9.41421L11.7071 6.70711L10.2929 5.29289L5.58579 10L10.2929 14.7071L11.7071 13.2929Z" fill="black"/>
</svg>
