<svg width="24" height="24" viewBox="0 0 24 24" fill="none" xmlns="http://www.w3.org/2000/svg">
<path fill-rule="evenodd" clip-rule="evenodd" d="M12 3C15.866 3 19 6.13401 19 10C19 13.866 15.866 17 12 17C8.13404 17 5.00003 13.866 5.00003 10C5.00003 6.13401 8.13404 3 12 3ZM13 19.9506V21H15V23H9.00003V21H11V19.9504C8.71321 19.7228 6.59731 18.7193 4.9729 17.1147L6.37838 15.6918C7.86662 17.1619 9.86583 18 12 18C16.4183 18 20 14.4183 20 10C20 7.8997 19.1885 5.92973 17.7598 4.44798L19.1996 3.05979C20.9842 4.91066 22 7.37666 22 10C22 15.1853 18.0534 19.4489 13 19.9506ZM7.00003 10C7.00003 7.23858 9.23861 5 12 5C14.7615 5 17 7.23858 17 10C17 12.7614 14.7615 15 12 15C9.23861 15 7.00003 12.7614 7.00003 10Z" fill="black"/>
</svg>
