<svg width="24" height="24" viewBox="0 0 24 24" fill="none" xmlns="http://www.w3.org/2000/svg">
<path fill-rule="evenodd" clip-rule="evenodd" d="M1.29291 21.2929L2.70712 22.7071L7.53821 17.876C11.9732 21.9023 17.4402 23.2994 20.1042 20.6339C20.569 20.1859 20.9625 19.7921 21.2729 19.4641C22.1679 18.5181 22.3038 16.8598 21.267 15.7825C20.7354 15.2302 19.6504 14.3885 17.733 13.017C17.1458 12.4919 16.4495 12.6057 15.8111 13.0245C15.504 13.226 15.2806 13.4298 14.8586 13.8521L14.0924 14.6188C14.0103 14.7009 13.0896 14.2628 12.0334 13.3809L22.7071 2.70712L21.2929 1.29291L1.29291 21.2929ZM10.6099 14.8044L8.95403 16.4602C12.6779 19.8027 16.9984 20.913 18.7038 19.2069C19.1614 18.7655 19.5343 18.3925 19.8212 18.0891C20.0286 17.8699 20.0657 17.4177 19.8271 17.1698C19.4298 16.7569 18.457 15.9985 16.7774 14.7923C16.6549 14.8908 16.5044 15.0338 16.2722 15.2662L15.5058 16.033C14.3535 17.186 12.4846 16.4498 10.6099 14.8044ZM9.37443 9.8987C9.33839 9.93474 9.40354 10.1342 9.56334 10.4367L8.09261 11.9074C7.28713 10.5667 7.11364 9.33178 7.96144 8.48404L8.72746 7.7176C8.85004 7.5949 8.90611 7.53806 8.97341 7.46733C9.06511 7.37096 9.14046 7.28632 9.20079 7.21142C8.03542 5.58808 7.24322 4.57372 6.81615 4.15185C6.5956 3.93398 6.10174 3.97409 5.92043 4.15274C5.43688 4.6292 5.27794 4.78806 4.77627 5.29757C3.29593 6.77873 3.95991 10.2693 6.38445 13.6156L4.95409 15.0459C1.84979 10.9125 0.974719 6.2728 3.35755 3.8887C3.86124 3.37708 4.02731 3.2111 4.51787 2.72773C5.43119 1.8278 7.16596 1.68689 8.22052 2.72862C8.77522 3.27658 9.65957 4.41442 10.9745 6.2544C11.5605 6.90393 11.3747 7.63978 10.8566 8.33799C10.7338 8.50352 10.5922 8.66663 10.4212 8.84636C10.3391 8.93262 10.2751 8.9975 10.1412 9.13151L9.37443 9.8987Z" fill="black"/>
</svg>
