<svg width="24" height="24" viewBox="0 0 24 24" fill="none" xmlns="http://www.w3.org/2000/svg">
<path fill-rule="evenodd" clip-rule="evenodd" d="M10.9745 6.25437C11.5605 6.9039 11.3747 7.63975 10.8566 8.33796C10.7337 8.5035 10.5921 8.6666 10.4211 8.84633C10.3391 8.9326 10.2751 8.99748 10.1412 9.13148L9.37441 9.89868C9.27396 9.99912 9.95978 11.3696 11.2908 12.7019C12.621 14.0335 13.9914 14.7198 14.0924 14.6188L14.8586 13.8521C15.2806 13.4297 15.504 13.226 15.8111 13.0245C16.4495 12.6057 17.1457 12.4919 17.733 13.017C19.6504 14.3885 20.7354 15.2302 21.267 15.7825C22.3038 16.8598 22.1679 18.518 21.2729 19.464C20.9625 19.7921 20.569 20.1858 20.1042 20.6339C17.2926 23.447 11.359 21.7351 6.81145 17.1831C2.26291 12.6301 0.551877 6.69583 3.35753 3.88867C3.86122 3.37706 4.0273 3.21107 4.51785 2.72771C5.43118 1.82778 7.16595 1.68687 8.22051 2.7286C8.77521 3.27655 9.65955 4.41439 10.9745 6.25437ZM16.2722 15.2662L15.5058 16.033C14.2031 17.3364 11.9845 16.2254 9.87703 14.1158C7.76808 12.0048 6.65827 9.78706 7.96142 8.48402L8.72744 7.71758C8.85002 7.59488 8.90609 7.53804 8.97339 7.4673C9.06509 7.37093 9.14044 7.28629 9.20077 7.21139C8.0354 5.58805 7.2432 4.5737 6.81614 4.15182C6.59558 3.93395 6.10172 3.97407 5.92042 4.15271C5.43686 4.62918 5.27792 4.78804 4.77626 5.29755C2.97194 7.10285 4.35321 11.8934 8.22519 15.7692C12.096 19.6437 16.8858 21.0257 18.7038 19.2069C19.1614 18.7655 19.5342 18.3924 19.8212 18.0891C20.0286 17.8699 20.0657 17.4176 19.8271 17.1698C19.4298 16.7569 18.457 15.9985 16.7774 14.7923C16.6549 14.8908 16.5044 15.0337 16.2722 15.2662ZM20 11V8.99999H16.4142L21.7071 3.7071L20.2929 2.29288L15 7.58578V3.99999H13V11H20Z" fill="black"/>
</svg>
