<svg width="24" height="24" viewBox="0 0 24 24" fill="none" xmlns="http://www.w3.org/2000/svg">
<path fill-rule="evenodd" clip-rule="evenodd" d="M1.29285 2.70712L8.0128 9.42707C8.03339 9.76856 8.07867 10.1061 8.14796 10.4378L1.99995 16.5858V22H8.99995V20H11V18H13V16H14.5857L21.2928 22.7071L22.7071 21.2929L2.70706 1.29291L1.29285 2.70712ZM9.99995 11.4142L12.5857 14H11V16H8.99995V18H6.99995V20H3.99995V17.4142L9.99995 11.4142ZM9.23805 5.0239C10.5012 3.19696 12.6108 2.00001 15 2.00001C18.8659 2.00001 22 5.13402 22 9.00001C22 11.3892 20.803 13.4988 18.9761 14.7619L17.5286 13.3144C19.0073 12.4459 20 10.8389 20 9.00001C20 6.23859 17.7614 4.00001 15 4.00001C13.1611 4.00001 11.5541 4.99269 10.6855 6.47139L9.23805 5.0239ZM15 7.00001C13.9642 7.00001 13.1124 7.7873 13.0102 8.79607L15.2039 10.9897C16.2127 10.8876 17 10.0357 17 9.00001C17 7.89544 16.1045 7.00001 15 7.00001Z" fill="black"/>
</svg>
