<svg width="24" height="24" viewBox="0 0 24 24" fill="none" xmlns="http://www.w3.org/2000/svg">
<path fill-rule="evenodd" clip-rule="evenodd" d="M10 11.8472L20 10.1805V14.4666C19.408 14.1687 18.7232 14 18 14C15.8271 14 14 15.5226 14 17.5C14 19.4775 15.8271 21 18 21C20.1729 21 22 19.4775 22 17.5V1.81958L8 4.15291V15.4666C7.40804 15.1687 6.72317 15 6 15C3.82708 15 2 16.5226 2 18.5C2 20.4775 3.82708 22 6 22C8.17292 22 10 20.4775 10 18.5V11.8472ZM8 18.5C8 19.284 7.14079 20 6 20C4.85921 20 4 19.284 4 18.5C4 17.7161 4.85921 17 6 17C7.14079 17 8 17.7161 8 18.5ZM18 19C19.1408 19 20 18.284 20 17.5C20 16.7161 19.1408 16 18 16C16.8592 16 16 16.7161 16 17.5C16 18.284 16.8592 19 18 19ZM10 9.81958V5.84717L20 4.1805V8.15291L10 9.81958Z" fill="black"/>
</svg>
