<svg width="24" height="24" viewBox="0 0 24 24" fill="none" xmlns="http://www.w3.org/2000/svg">
<path fill-rule="evenodd" clip-rule="evenodd" d="M17.5858 19H7C3.68629 19 1 16.3137 1 13C1 10.132 3.01605 7.72286 5.72212 7.13629L1.29289 2.70706L2.70711 1.29285L22.7071 21.2928L21.2929 22.7071L17.5858 19ZM7.45532 8.86949L7.39066 8.98147L6.83965 9.00309C4.69934 9.08711 3 10.8504 3 13C3 15.2091 4.79086 17 7 17H15.5858L7.45532 8.86949ZM20.2257 16.0115L21.641 17.4268C22.4837 16.5318 23 15.3262 23 14C23 11.4849 21.1431 9.40358 18.7254 9.0522C17.875 6.10557 15.1586 3.99995 12 3.99995C10.9093 3.99995 9.86235 4.25164 8.92461 4.71035L10.4571 6.24286C10.9466 6.08432 11.4659 5.99995 12 5.99995C14.4511 5.99995 16.5303 7.77622 16.9309 10.1661L17.0738 11.0181L17.9375 11.0006C17.9531 11.0003 17.9608 11.0002 17.9686 11.0001C17.9765 11 17.9843 11 18 11C19.6569 11 21 12.3431 21 14C21 14.7739 20.7069 15.4794 20.2257 16.0115Z" fill="black"/>
</svg>
