<svg width="24" height="24" viewBox="0 0 24 24" fill="none" xmlns="http://www.w3.org/2000/svg">
<path fill-rule="evenodd" clip-rule="evenodd" d="M12 1C10.0789 1 8.28166 1.57577 6.80603 2.59187L8.25131 4.03714C9.33833 3.37159 10.6261 3 12 3C15.8358 3 19 5.8966 19 10C19 11.123 18.6416 12.3601 17.9201 13.706L19.3887 15.1745C20.4603 13.346 21 11.624 21 10C21 4.75066 16.9029 1 12 1ZM4.12557 5.53983L1.29285 2.70711L2.70706 1.29289L22.7071 21.2929L21.2928 22.7071L17.0176 18.4319C15.8279 19.8154 14.3737 21.2549 12.6577 22.7533L12 23.3276L11.3422 22.7533C5.81126 17.9237 2.99995 13.7068 2.99995 10C2.99995 8.33957 3.40988 6.82909 4.12557 5.53983ZM15.5989 17.0131L5.61678 7.03104C5.22089 7.91564 4.99995 8.91569 4.99995 10C4.99995 12.8492 7.30657 16.4335 12 20.6634C13.4162 19.387 14.6151 18.1695 15.5989 17.0131Z" fill="black"/>
</svg>
