<svg width="24" height="24" viewBox="0 0 24 24" fill="none" xmlns="http://www.w3.org/2000/svg">
<path fill-rule="evenodd" clip-rule="evenodd" d="M8 7H6.19306C7.55354 5.0787 9.60638 4 12 4C16.4183 4 20 7.58172 20 12H22C22 6.47715 17.5228 2 12 2C9.19577 2 6.72511 3.18251 5 5.27035V4H3V9H8V7ZM16 17H17.8069C16.4465 18.9213 14.3936 20 12 20C7.58172 20 4 16.4183 4 12H2C2 17.5228 6.47715 22 12 22C14.8042 22 17.2749 20.8175 19 18.7297V20H21V15H16V17ZM12.0003 15.9983C12.5528 15.9983 13.0007 15.5506 13.0007 14.9983C13.0007 14.4461 12.5528 13.9983 12.0003 13.9983C11.4479 13.9983 11 14.4461 11 14.9983C11 15.5506 11.4479 15.9983 12.0003 15.9983ZM13.0036 6.99835H11.003V12.9983H13.0036V6.99835Z" fill="black"/>
</svg>
