<svg width="24" height="24" viewBox="0 0 24 24" fill="none" xmlns="http://www.w3.org/2000/svg">
<path fill-rule="evenodd" clip-rule="evenodd" d="M12 4C14.3936 4 16.4465 5.0787 17.8069 7H16V9H21V4H19V5.27035C17.2749 3.18251 14.8042 2 12 2C6.47715 2 2 6.47715 2 12H4C4 7.58172 7.58172 4 12 4ZM12 20C9.60638 20 7.55354 18.9213 6.19306 17H8V15H3V20H5V18.7297C6.72511 20.8175 9.19577 22 12 22C17.5228 22 22 17.5228 22 12H20C20 16.4183 16.4183 20 12 20ZM12.0003 15.9983C12.5528 15.9983 13.0007 15.5506 13.0007 14.9983C13.0007 14.4461 12.5528 13.9983 12.0003 13.9983C11.4479 13.9983 11 14.4461 11 14.9983C11 15.5506 11.4479 15.9983 12.0003 15.9983ZM13.0036 6.99835H11.003V12.9983H13.0036V6.99835Z" fill="black"/>
</svg>
