<svg width="24" height="24" viewBox="0 0 24 24" fill="none" xmlns="http://www.w3.org/2000/svg">
<path fill-rule="evenodd" clip-rule="evenodd" d="M6 22C7.30622 22 8.41746 21.1651 8.82929 20H17.5C19.9853 20 22 17.9852 22 15.5C22 13.0147 19.9853 11 17.5 11H6.5C5.11929 11 4 9.88066 4 8.49995C4 7.11924 5.11929 5.99995 6.5 5.99995H9.58579L8.29289 7.29285L9.70711 8.70706L13.4142 4.99995L9.70711 1.29285L8.29289 2.70706L9.58579 3.99995H6.5C4.01472 3.99995 2 6.01467 2 8.49995C2 10.9852 4.01472 13 6.5 13H17.5C18.8807 13 20 14.1192 20 15.5C20 16.8807 18.8807 18 17.5 18H8.82929C8.41746 16.8348 7.30622 16 6 16C4.34315 16 3 17.3431 3 19C3 20.6568 4.34315 22 6 22ZM5 19C5 18.4477 5.44772 18 6 18C6.55228 18 7 18.4477 7 19C7 19.5522 6.55228 20 6 20C5.44772 20 5 19.5522 5 19ZM18 1.99995C19.6569 1.99995 21 3.3431 21 4.99995C21 6.65681 19.6569 7.99995 18 7.99995C16.3431 7.99995 15 6.65681 15 4.99995C15 3.3431 16.3431 1.99995 18 1.99995ZM17 4.99995C17 4.44767 17.4477 3.99995 18 3.99995C18.5523 3.99995 19 4.44767 19 4.99995C19 5.55224 18.5523 5.99995 18 5.99995C17.4477 5.99995 17 5.55224 17 4.99995Z" fill="black"/>
</svg>
