<svg width="24" height="24" viewBox="0 0 24 24" fill="none" xmlns="http://www.w3.org/2000/svg">
<path fill-rule="evenodd" clip-rule="evenodd" d="M2.81818 19H18.5858L21.2929 21.7071L22.7071 20.2928L2.70711 0.292847L1.29289 1.70706L2.60003 3.0142C1.69873 3.13275 1 3.97659 1 4.99995V17C1 18.1045 1.81403 19 2.81818 19ZM3 4.99995H4.58579L7.58579 7.99995H3V4.99995ZM9.58579 9.99995H3V17H16.5858L9.58579 9.99995ZM8.21421 2.99995L10.2142 4.99995H21V7.99995H13.2142L15.2142 9.99995H21V15.7857L22.8927 17.6784C22.9621 17.4666 23 17.2381 23 17V4.99995C23 3.89538 22.186 2.99995 21.1818 2.99995H8.21421Z" fill="black"/>
</svg>
