<svg width="24" height="24" viewBox="0 0 24 24" fill="none" xmlns="http://www.w3.org/2000/svg">
<path fill-rule="evenodd" clip-rule="evenodd" d="M7.03361 6C7.3276 3.81519 9.51097 2 12 2C14.4891 2 16.6724 3.81519 16.9664 6H19.847C20.9516 6 21.847 6.89543 21.847 8C21.847 8.09464 21.8403 8.18916 21.8269 8.28284L20.1126 20.2828C19.9719 21.2681 19.128 22 18.1327 22H5.86731C4.87201 22 4.02817 21.2681 3.88741 20.2828L2.17313 8.28284C2.01692 7.18937 2.77671 6.17631 3.87018 6.0201C3.96387 6.00672 4.05839 6 4.15303 6H7.03361ZM14.9279 6C14.6239 4.93808 13.398 4 12 4C10.602 4 9.37613 4.93808 9.07214 6H14.9279ZM4.15303 8H7.00002V10H9.00002V8H15V10H17V8H19.847L18.1327 20H5.86731L4.15303 8Z" fill="black"/>
</svg>
