<svg width="24" height="24" viewBox="0 0 24 24" fill="none" xmlns="http://www.w3.org/2000/svg">
<path fill-rule="evenodd" clip-rule="evenodd" d="M1.70706 0.292892L0.292847 1.70711L3.58574 5H2.99995C1.89538 5 0.999953 5.89543 0.999953 7V17C0.999953 18.1046 1.89538 19 2.99995 19H15C15.7021 19 16.3197 18.6382 16.6766 18.0908L22.2928 23.7071L23.7071 22.2929L1.70706 0.292892ZM15 16.4142L5.58574 7H2.99995V17H15V16.4142ZM17 8.38197L23 5.38197V18.3701L21 16.3701V8.61803L17 10.618V13.0008L15 11.0008V7H10.9992L8.99917 5H15C16.1045 5 17 5.89543 17 7V8.38197Z" fill="black"/>
</svg>
