<?xml version="1.0" encoding="utf-8"?>
<!-- Generator: Adobe Illustrator 22.0.1, SVG Export Plug-In . SVG Version: 6.00 Build 0)  -->
<svg version="1.1" id="Capa_1" xmlns="http://www.w3.org/2000/svg" xmlns:xlink="http://www.w3.org/1999/xlink" x="0px" y="0px"
	 viewBox="0 0 88.2 34.8" style="enable-background:new 0 0 88.2 34.8;" xml:space="preserve">
<g>
	<g>
		<rect x="17.5" y="16.9" width="12.6" height="0.9"/>
		<polygon points="26,26.6 17.1,17.7 17.8,17.1 26.7,26 		"/>
		<polygon points="19.6,31.8 19.2,30.9 25.7,28.2 26.1,29.1 		"/>
		<polygon points="8.9,26.6 8.2,26 17.1,17.1 17.8,17.7 		"/>
		<rect x="4.9" y="16.9" width="12.6" height="0.9"/>
		<polygon points="4,15.6 3.1,15.2 5.8,8.8 6.6,9.1 		"/>
		<polygon points="9.2,6.6 8.8,5.7 15.3,3.1 15.6,3.9 		"/>
		<rect x="17" y="4.8" width="0.9" height="12.6"/>
		<polygon points="25.7,6.6 19.3,3.9 19.6,3.1 26.1,5.7 		"/>
		<path d="M32.2,15.7c-0.9,0-1.7,0.8-1.7,1.7s0.8,1.7,1.7,1.7c0.9,0,1.7-0.8,1.7-1.7C33.9,16.5,33.1,15.7,32.2,15.7 M32.2,20
			c-1.4,0-2.6-1.2-2.6-2.6s1.2-2.6,2.6-2.6s2.6,1.2,2.6,2.6C34.8,18.8,33.6,20,32.2,20"/>
		<path d="M27.9,26.1c-0.9,0-1.7,0.8-1.7,1.7c0,0.9,0.8,1.7,1.7,1.7s1.7-0.8,1.7-1.7S28.8,26.1,27.9,26.1 M27.9,30.4
			c-1.4,0-2.6-1.2-2.6-2.6c0-1.4,1.2-2.6,2.6-2.6s2.6,1.2,2.6,2.6S29.3,30.4,27.9,30.4"/>
		<path d="M17.5,30.5c-0.9,0-1.7,0.8-1.7,1.7c0,0.9,0.8,1.7,1.7,1.7c0.9,0,1.7-0.8,1.7-1.7S18.4,30.5,17.5,30.5 M17.5,34.8
			c-1.4,0-2.6-1.2-2.6-2.6c0-1.4,1.2-2.6,2.6-2.6c1.4,0,2.6,1.2,2.6,2.6C20.1,33.6,18.9,34.8,17.5,34.8"/>
		<path d="M7,26.1c-0.9,0-1.7,0.8-1.7,1.7c0,0.9,0.8,1.7,1.7,1.7c0.9,0,1.7-0.8,1.7-1.7C8.7,26.9,8,26.1,7,26.1 M7,30.4
			c-1.4,0-2.6-1.2-2.6-2.6c0-1.4,1.2-2.6,2.6-2.6s2.6,1.2,2.6,2.6C9.6,29.3,8.5,30.4,7,30.4"/>
		<path d="M2.7,15.7c-0.9,0-1.7,0.8-1.7,1.7s0.8,1.7,1.7,1.7s1.7-0.8,1.7-1.7C4.4,16.5,3.6,15.7,2.7,15.7 M2.7,20
			c-1.4,0-2.6-1.2-2.6-2.6s1.2-2.6,2.6-2.6s2.6,1.2,2.6,2.6C5.3,18.8,4.1,20,2.7,20"/>
		<path d="M7,5.3C6.1,5.3,5.3,6.1,5.3,7S6.1,8.7,7,8.7C8,8.7,8.7,7.9,8.7,7C8.7,6.1,8,5.3,7,5.3 M7,9.6C5.6,9.6,4.4,8.4,4.4,7
			S5.6,4.4,7,4.4S9.6,5.5,9.6,7C9.6,8.4,8.5,9.6,7,9.6"/>
		<path d="M17.5,1c-0.9,0-1.7,0.8-1.7,1.7s0.8,1.7,1.7,1.7c0.9,0,1.7-0.8,1.7-1.7S18.4,1,17.5,1 M17.5,5.3c-1.4,0-2.6-1.2-2.6-2.6
			S16,0,17.5,0c1.4,0,2.6,1.2,2.6,2.6C20.1,4.1,18.9,5.3,17.5,5.3"/>
		<path d="M27.9,5.3c-0.9,0-1.7,0.8-1.7,1.7s0.8,1.7,1.7,1.7s1.7-0.8,1.7-1.7S28.8,5.3,27.9,5.3 M27.9,9.6c-1.4,0-2.6-1.2-2.6-2.6
			s1.2-2.6,2.6-2.6s2.6,1.2,2.6,2.6S29.3,9.6,27.9,9.6"/>
		<path d="M43,4.1c-0.3,0-0.5,0.1-0.7,0.2c-0.2,0.2-0.3,0.4-0.3,0.7v2.7c0,0.6,0.3,0.9,0.9,0.9c0.1,0,0.3,0,0.4,0s0.2-0.1,0.3-0.1
			c0.1,0,0.2-0.1,0.2-0.2c0.1-0.1,0.2-0.1,0.3-0.2l0.7,0.8c-0.3,0.3-0.5,0.5-0.8,0.6c-0.3,0.1-0.6,0.2-1,0.2c-0.6,0-1.2-0.2-1.5-0.5
			c-0.4-0.3-0.6-0.8-0.6-1.5V5.1c0-0.3,0-0.6,0.1-0.8s0.3-0.4,0.4-0.6c0.2-0.2,0.4-0.3,0.7-0.4c0.3-0.1,0.5-0.1,0.8-0.1
			c0.2,0,0.4,0,0.6,0c0.2,0,0.3,0.1,0.5,0.2c0.1,0.1,0.3,0.2,0.4,0.3s0.3,0.3,0.4,0.4l-0.7,0.7c-0.1-0.1-0.2-0.3-0.4-0.4
			C43.6,4.2,43.3,4.1,43,4.1"/>
		<polygon points="47.5,6.8 47.5,8.6 49.7,8.6 49.7,9.6 46.4,9.6 46.4,3.2 49.5,3.2 49.5,4.2 47.5,4.2 47.5,5.9 49.2,5.9 49.2,6.8 
					"/>
		<polygon points="54.7,3.2 55.7,3.2 55.7,9.6 53.9,9.6 52.2,4.5 52.2,9.6 51.2,9.6 51.2,3.2 52.9,3.2 54.7,8.4 		"/>
		<polygon points="57,4.2 57,3.2 61.3,3.2 61.3,4.2 59.7,4.2 59.7,9.6 58.6,9.6 58.6,4.2 		"/>
		<path d="M63.7,6h1c0.2,0,0.3,0,0.4-0.1c0.1-0.1,0.1-0.2,0.1-0.4V4.8c0-0.2,0-0.4-0.1-0.4c-0.1-0.1-0.2-0.1-0.4-0.1h-1L63.7,6
			L63.7,6z M66.1,6.3c-0.2,0.2-0.4,0.4-0.8,0.5l1.3,2.7h-1.2L64.2,7h-0.5v2.6h-1.2V3.2h2.1c0.6,0,1,0.1,1.3,0.4s0.4,0.7,0.4,1.2v0.6
			C66.4,5.8,66.3,6.1,66.1,6.3"/>
		<path d="M71.2,5.1c0-0.3-0.1-0.5-0.3-0.7c-0.2-0.2-0.4-0.2-0.7-0.2H70c-0.3,0-0.5,0.1-0.7,0.2C69.1,4.5,69,4.8,69,5.1v2.7
			c0,0.3,0.1,0.5,0.3,0.7c0.2,0.1,0.4,0.2,0.8,0.2h0.1c0.3,0,0.6-0.1,0.8-0.2c0.2-0.1,0.3-0.4,0.3-0.7L71.2,5.1L71.2,5.1z M71,3.2
			c0.3,0.1,0.5,0.2,0.7,0.4C71.9,3.8,72,4,72.2,4.2c0.1,0.2,0.2,0.5,0.2,0.8v2.7c0,0.3-0.1,0.6-0.2,0.8c-0.1,0.2-0.3,0.4-0.5,0.6
			c-0.2,0.2-0.4,0.3-0.7,0.4c-0.3,0.1-0.5,0.1-0.9,0.1H70c-0.3,0-0.6,0-0.9-0.1c-0.3-0.1-0.5-0.2-0.7-0.4C68.2,9,68.1,8.8,68,8.6
			c-0.1-0.2-0.2-0.5-0.2-0.8V5c0-0.3,0.1-0.6,0.2-0.8c0.1-0.2,0.3-0.4,0.5-0.6c0.2-0.2,0.4-0.3,0.7-0.4c0.3-0.1,0.5-0.1,0.9-0.1h0.1
			C70.4,3.1,70.7,3.1,71,3.2"/>
		<path d="M44.1,16.1c0-0.2,0-0.4-0.1-0.6s-0.2-0.3-0.3-0.4c-0.1-0.1-0.3-0.2-0.4-0.2s-0.3-0.1-0.5-0.1h-1v5.1h0.9
			c0.4,0,0.8-0.1,1-0.3c0.2-0.2,0.4-0.5,0.4-0.9L44.1,16.1L44.1,16.1z M42.8,14.2c0.7,0,1.2,0.2,1.5,0.5c0.4,0.3,0.5,0.8,0.5,1.4
			v2.6c0,0.3-0.1,0.6-0.1,0.9c-0.1,0.2-0.3,0.4-0.4,0.6c-0.2,0.1-0.4,0.3-0.7,0.3c-0.3,0.1-0.5,0.1-0.8,0.1h-1.6v-6.4L42.8,14.2
			L42.8,14.2z"/>
		<polygon points="47.4,17.6 47.4,19.9 49.7,19.9 49.7,20.6 46.7,20.6 46.7,14.2 49.5,14.2 49.5,14.8 47.4,14.8 47.4,17 49.2,17 
			49.2,17.6 		"/>
		<path d="M53.2,15.1c-0.3,0-0.5,0.1-0.7,0.2c-0.2,0.2-0.3,0.4-0.3,0.7v2.7c0,0.6,0.3,0.9,0.9,0.9c0.1,0,0.3,0,0.4,0
			c0.1,0,0.2-0.1,0.3-0.1c0.1,0,0.2-0.1,0.2-0.2c0.1-0.1,0.2-0.1,0.3-0.2l0.7,0.8c-0.3,0.3-0.5,0.5-0.8,0.6c-0.3,0.1-0.6,0.2-1,0.2
			c-0.6,0-1.2-0.2-1.5-0.5s-0.6-0.8-0.6-1.5V16c0-0.3,0.1-0.6,0.2-0.8c0.1-0.2,0.3-0.4,0.4-0.6c0.2-0.2,0.4-0.3,0.7-0.4
			c0.3-0.1,0.5-0.1,0.8-0.1c0.2,0,0.4,0,0.6,0c0.2,0,0.3,0.1,0.5,0.2c0.1,0.1,0.3,0.2,0.4,0.3c0.1,0.1,0.3,0.3,0.4,0.4l-0.7,0.7
			c-0.1-0.1-0.2-0.3-0.4-0.4C53.8,15.2,53.5,15.1,53.2,15.1"/>
		<path d="M59.9,14.2H61v4.5c0,0.3,0,0.6-0.2,0.9c-0.1,0.3-0.3,0.5-0.5,0.6c-0.2,0.2-0.4,0.3-0.7,0.4c-0.3,0.1-0.6,0.1-0.9,0.1
			c-0.3,0-0.6,0-0.9-0.1c-0.3-0.1-0.5-0.2-0.7-0.4c-0.2-0.2-0.3-0.4-0.5-0.6c-0.1-0.3-0.2-0.5-0.2-0.9v-4.5h1.2v4.5
			c0,0.3,0.1,0.6,0.3,0.8c0.2,0.2,0.4,0.2,0.8,0.2c0.3,0,0.6-0.1,0.8-0.2c0.2-0.2,0.3-0.4,0.3-0.8V14.2z"/>
		<polygon points="64,14.2 64,19.6 66.3,19.6 66.3,20.6 62.8,20.6 62.8,14.2 		"/>
		<polygon points="66.5,15.2 66.5,14.2 70.8,14.2 70.8,15.2 69.2,15.2 69.2,20.6 68,20.6 68,15.2 		"/>
		<path d="M75.3,14.2h1.2v4.5c0,0.3-0.1,0.6-0.2,0.9c-0.1,0.3-0.3,0.5-0.5,0.6c-0.2,0.2-0.4,0.3-0.7,0.4s-0.6,0.1-0.9,0.1
			c-0.3,0-0.6,0-0.9-0.1c-0.3-0.1-0.5-0.2-0.7-0.4c-0.2-0.2-0.3-0.4-0.5-0.6C72.1,19.3,72,19,72,18.7v-4.5h1.2v4.5
			c0,0.3,0.1,0.6,0.3,0.8c0.2,0.2,0.4,0.2,0.8,0.2s0.6-0.1,0.8-0.2c0.2-0.2,0.3-0.4,0.3-0.8L75.3,14.2L75.3,14.2z"/>
		<path d="M79.4,17h1c0.2,0,0.3,0,0.4-0.1c0.1-0.1,0.1-0.2,0.1-0.4v-0.6c0-0.2,0-0.4-0.1-0.4c-0.1-0.1-0.2-0.1-0.4-0.1h-1L79.4,17
			L79.4,17z M81.9,17.3c-0.2,0.2-0.4,0.4-0.8,0.5l1.3,2.7h-1.2L80,18h-0.5v2.6h-1.2v-6.4h2.1c0.6,0,1,0.1,1.3,0.4
			c0.3,0.3,0.4,0.7,0.4,1.2v0.6C82.1,16.8,82.1,17.1,81.9,17.3"/>
		<path d="M86.3,18.1l-0.6-2.8l-0.6,2.8H86.3z M86.4,14.2l1.7,6.4h-1.2l-0.4-1.5h-1.7l-0.4,1.5h-1.2l1.7-6.4H86.4z"/>
		<path d="M43.9,27.1c0-0.3-0.1-0.5-0.3-0.7c-0.2-0.1-0.4-0.2-0.7-0.2h-0.7v4.3h0.6c0.3,0,0.6-0.1,0.8-0.2c0.2-0.1,0.3-0.4,0.3-0.7
			V27.1z M43,25.2c0.7,0,1.2,0.2,1.6,0.5c0.4,0.3,0.6,0.8,0.6,1.5v2.5c0,0.7-0.2,1.2-0.6,1.5c-0.4,0.3-0.9,0.5-1.6,0.5h-1.8v-6.4
			L43,25.2L43,25.2z"/>
		<rect x="47" y="25.2" width="1.2" height="6.4"/>
		<path d="M52.2,28.1h2.2v2.8c-0.3,0.3-0.6,0.5-1,0.6c-0.3,0.1-0.7,0.2-1.1,0.2c-0.3,0-0.6,0-0.9-0.1c-0.3-0.1-0.5-0.2-0.7-0.4
			c-0.2-0.2-0.3-0.4-0.5-0.6c-0.1-0.2-0.2-0.5-0.2-0.8v-2.7c0-0.3,0.1-0.6,0.2-0.8s0.3-0.4,0.5-0.6c0.2-0.2,0.4-0.3,0.7-0.4
			c0.3-0.1,0.5-0.1,0.8-0.1c0.4,0,0.8,0.1,1.1,0.2c0.3,0.2,0.6,0.4,0.8,0.7l-0.7,0.8c-0.2-0.2-0.3-0.3-0.5-0.5
			c-0.2-0.1-0.4-0.2-0.7-0.2c-0.3,0-0.5,0.1-0.7,0.3c-0.2,0.2-0.3,0.4-0.3,0.7v2.7c0,0.3,0.1,0.5,0.3,0.7c0.2,0.1,0.4,0.2,0.8,0.2
			c0.2,0,0.3,0,0.5,0c0.1,0,0.3-0.1,0.4-0.2V29h-1L52.2,28.1L52.2,28.1z"/>
		<rect x="56.3" y="25.2" width="1.2" height="6.4"/>
		<polygon points="59.1,26.2 59.1,25.2 63.4,25.2 63.4,26.2 61.8,26.2 61.8,31.6 60.6,31.6 60.6,26.2 		"/>
		<path d="M66.8,29.1l-0.6-2.8l-0.6,2.8H66.8z M66.9,25.2l1.7,6.4h-1.2L67,30.1h-1.7L65,31.6h-1.2l1.7-6.4H66.9z"/>
		<polygon points="71.1,25.2 71.1,30.6 73.4,30.6 73.4,31.6 69.9,31.6 69.9,25.2 		"/>
	</g>
</g>
</svg>
