<svg height="344pt" viewBox="0 0 344 344.97129" width="344pt" xmlns="http://www.w3.org/2000/svg"><path d="m343.082031 330.4375-158.808593-157.945312 157.976562-158.847657c3.117188-3.132812 3.105469-8.199219-.027344-11.316406-3.132812-3.117187-8.199218-3.101563-11.316406.03125l-157.941406 158.824219-158.832032-157.976563c-3.132812-3.1171872-8.199218-3.105469-11.316406.027344-3.117187 3.132813-3.105468 8.199219.027344 11.316406l158.808594 157.941407-157.960938 158.832031c-3.117187 3.132812-3.105468 8.199219.027344 11.316406s8.199219 3.105469 11.316406-.027344l157.929688-158.808593 158.796875 157.976562c3.132812 3.117188 8.199219 3.105469 11.316406-.027344 3.117187-3.132812 3.105469-8.199218-.027344-11.316406zm0 0" fill="#1e81ce"/></svg>